<svg width="54" height="54" viewBox="0 0 54 54" fill="none" xmlns="http://www.w3.org/2000/svg">
<rect width="54" height="54" fill="#1E1E1E"/>
<g id="Home">
<rect width="1440" height="3498" transform="translate(-104 -75)" fill="white"/>
<g id="Navigation - Desktop">
<rect width="1440" height="56" transform="translate(-104)" fill="white"/>
<g id="Navigation wrapper">
<g id="Logo wrapper">
<g id="Group 556">
<g id="ubuin_logo 1">
<path id="Path 0" opacity="0.98" fill-rule="evenodd" clip-rule="evenodd" d="M35.548 3.03112C35.8605 3.02745 36.3025 3.06153 36.5704 3.11029C36.83 3.15747 37.2662 3.26234 37.5404 3.3436C37.8146 3.42487 38.2624 3.60523 38.5366 3.74417C38.8108 3.88364 39.2119 4.12797 39.4279 4.28788C39.6444 4.44727 39.9716 4.71781 40.1556 4.88874C40.3397 5.05966 40.6495 5.412 40.8435 5.67153C41.0381 5.93106 41.3044 6.34422 41.4355 6.58907C41.5671 6.83445 41.7569 7.28221 41.8575 7.58526C41.9582 7.88831 42.0783 8.34812 42.1234 8.60766C42.1706 8.87558 42.2062 9.37367 42.2062 9.76113C42.2062 10.136 42.1721 10.6551 42.1302 10.9146C42.0888 11.1741 41.9797 11.5988 41.888 11.8584C41.7967 12.1179 41.6468 12.4839 41.555 12.671C41.4633 12.8582 41.2981 13.1534 41.1875 13.3264C41.0774 13.4994 40.8897 13.759 40.7712 13.9026C40.6522 14.0463 40.4959 14.2319 40.4241 14.3142C40.3517 14.3971 40.0807 14.6356 39.8211 14.8453C39.5616 15.0551 39.1484 15.3408 38.9036 15.4803C38.6587 15.6198 38.2692 15.808 38.0385 15.8987C37.8078 15.9889 37.3952 16.1194 37.1209 16.1881C36.6784 16.2993 36.5065 16.3134 35.5742 16.3134C34.5917 16.3129 34.4942 16.304 34.0275 16.1708C33.7533 16.0927 33.3994 15.9789 33.2411 15.9181C33.0827 15.8578 32.7639 15.7131 32.5333 15.5977C32.3026 15.4819 31.9251 15.2538 31.6944 15.0907C31.4637 14.9277 31.0725 14.5942 30.8245 14.3488C30.5603 14.0877 30.2305 13.6861 30.0281 13.3789C29.8383 13.0905 29.6008 12.6773 29.5007 12.4613C29.4005 12.2453 29.2569 11.8793 29.1814 11.6486C29.1059 11.4179 29.0094 11.0169 28.9669 10.7573C28.9244 10.4978 28.8898 9.99026 28.8898 9.63006C28.8898 9.26986 28.9234 8.77439 28.9638 8.52901C29.0047 8.28363 29.099 7.90036 29.1735 7.67701C29.2479 7.45365 29.3753 7.12334 29.4571 6.94298C29.5384 6.76262 29.7361 6.41448 29.8955 6.16962C30.0548 5.92477 30.3107 5.5824 30.4643 5.40938C30.6174 5.23636 30.8628 4.98259 31.0091 4.84575C31.1554 4.7089 31.4521 4.46982 31.6681 4.31462C31.8842 4.15995 32.2265 3.94603 32.4284 3.8396C32.6302 3.73369 32.937 3.5916 33.11 3.52397C33.283 3.45633 33.5425 3.36405 33.6867 3.31896C33.8309 3.27387 34.1261 3.20204 34.3421 3.15957C34.5581 3.1171 34.7946 3.07254 34.8664 3.05995C34.9383 3.04789 35.2455 3.03479 35.548 3.03112ZM43.0456 12.9841C43.0598 12.9825 43.1211 13.0234 43.1814 13.0753C43.2417 13.1267 43.3859 13.2871 43.5013 13.4313C43.6171 13.5755 43.9123 13.9881 44.1572 14.3488C44.402 14.709 44.7051 15.1809 44.8304 15.3974C44.9557 15.6135 45.2163 16.1089 45.4092 16.4985C45.6022 16.8881 45.8428 17.4066 45.944 17.652C46.0447 17.8973 46.202 18.31 46.2937 18.5695C46.3849 18.829 46.5428 19.3245 46.644 19.6706C46.7457 20.0166 46.8862 20.5713 46.9575 20.9027C47.0283 21.234 47.1331 21.7772 47.1903 22.1086C47.2474 22.4399 47.3345 23.0775 47.3838 23.5242C47.4367 24.004 47.4739 24.7558 47.4745 25.3593C47.4755 25.9796 47.4404 26.701 47.3864 27.1944C47.3371 27.6411 47.2485 28.2902 47.1892 28.6362C47.13 28.9823 47.0435 29.4305 46.9968 29.6324C46.9501 29.8343 46.8332 30.2705 46.7373 30.6024C46.6413 30.9343 46.493 31.4061 46.408 31.651C46.3226 31.8958 46.1946 32.2382 46.1238 32.4112C46.0525 32.5843 45.9125 32.9146 45.8119 33.1453C45.7117 33.376 45.4873 33.8478 45.3138 34.1939C45.1402 34.5399 44.8498 35.0711 44.6678 35.3736C44.4864 35.6761 44.207 36.1129 44.0481 36.3436C43.8887 36.5742 43.6454 36.9103 43.507 37.0907C43.3686 37.2711 43.2139 37.4189 43.1636 37.4194C43.1002 37.4205 43.0115 37.2941 42.8773 37.0131C42.7704 36.7892 42.5701 36.4274 42.4317 36.2099C42.2938 35.9917 42.0584 35.6614 41.9095 35.4758C41.76 35.2897 41.5005 35.005 41.3327 34.843C41.1644 34.681 40.8383 34.4041 40.6076 34.2285C40.3769 34.0528 40.1467 33.8725 40.0964 33.8284C40.0461 33.7844 40.0052 33.6953 40.0057 33.6303C40.0062 33.5652 40.1341 33.2999 40.2893 33.0404C40.4445 32.7809 40.6758 32.3562 40.8026 32.0967C40.9295 31.8371 41.1419 31.3537 41.2745 31.0218C41.4072 30.6899 41.5624 30.2773 41.6195 30.1043C41.6767 29.9313 41.7642 29.6481 41.814 29.4751C41.8638 29.3021 41.9603 28.9125 42.029 28.61C42.0977 28.3075 42.2041 27.682 42.266 27.2206C42.3493 26.6019 42.3787 26.1064 42.3798 25.3331C42.3801 24.634 42.3506 24.066 42.2911 23.6291C42.2424 23.2684 42.1417 22.6785 42.0678 22.3183C41.9944 21.9576 41.8665 21.427 41.7836 21.1386C41.7008 20.8502 41.5639 20.414 41.479 20.1686C41.3941 19.9233 41.2237 19.487 41.0999 19.1987C40.9762 18.9103 40.7707 18.4741 40.6427 18.2287C40.5148 17.9833 40.2616 17.5471 40.0807 17.2587C39.8993 16.9704 39.7367 16.6988 39.7194 16.6558C39.7016 16.6128 39.7173 16.5394 39.7545 16.4932C39.7912 16.4466 40.045 16.2442 40.3192 16.0423C40.5934 15.841 40.9825 15.5228 41.1843 15.3356C41.3862 15.1479 41.7307 14.7725 41.9503 14.5014C42.1695 14.2298 42.4762 13.7957 42.6319 13.5362C42.7871 13.2766 42.9381 13.047 42.967 13.026C42.9958 13.0045 43.0315 12.9856 43.0456 12.9841ZM28.0635 6.17959C28.085 6.17434 28.138 6.18116 28.1815 6.19584C28.225 6.21 28.2596 6.27501 28.2591 6.34002C28.258 6.40504 28.1778 6.67034 28.0798 6.92987C27.9823 7.1894 27.8517 7.61409 27.7893 7.87362C27.7269 8.13316 27.6551 8.64016 27.6294 9.00089C27.6037 9.36109 27.6021 9.9158 27.6257 10.233C27.6493 10.5502 27.6603 10.8391 27.6498 10.8753C27.6394 10.9115 27.5308 10.9518 27.4081 10.9649C27.2855 10.9786 26.9614 11.0032 26.6872 11.0205C26.413 11.0378 25.9411 11.0871 25.6386 11.1301C25.3361 11.1731 24.7698 11.279 24.3803 11.365C23.9907 11.4515 23.4365 11.5941 23.1481 11.6822C22.8598 11.7703 22.3758 11.9433 22.0733 12.0665C21.7708 12.1897 21.2512 12.4262 20.9198 12.5919C20.5885 12.7576 20.1045 13.0234 19.845 13.1828C19.5855 13.3427 19.1964 13.5912 18.9799 13.7354C18.7639 13.8796 18.3035 14.2225 17.9575 14.4977C17.6114 14.773 17.0677 15.259 16.7495 15.5778C16.4318 15.8966 15.9945 16.37 15.7785 16.6296C15.5619 16.8891 15.2211 17.3547 15.0198 17.664C14.7351 18.1023 14.6281 18.2271 14.5364 18.2277C14.4714 18.2282 14.2947 18.1249 14.1431 17.998C13.9916 17.8711 13.6791 17.6504 13.4484 17.5073C13.2177 17.3646 12.8995 17.1822 12.7406 17.102C12.5823 17.0218 12.252 16.8755 12.0066 16.7764C11.7612 16.6778 11.2778 16.5263 10.9318 16.4403C10.5857 16.3543 10.2848 16.2736 10.2633 16.2605C10.2418 16.2468 10.2239 16.2007 10.2239 16.1577C10.2239 16.1147 10.2994 15.9553 10.3922 15.8038C10.4845 15.6523 10.6654 15.3749 10.7944 15.1877C10.9234 15.0005 11.1352 14.7054 11.2657 14.5323C11.3958 14.3593 11.7282 13.9472 12.0034 13.6169C12.2792 13.2861 12.8114 12.7077 13.1863 12.3318C13.5612 11.9559 14.1395 11.4227 14.4708 11.1474C14.8022 10.8716 15.2741 10.4915 15.5195 10.3022C15.7648 10.1135 16.189 9.8057 16.4632 9.61957C16.7374 9.43292 17.2796 9.09631 17.6691 8.87191C18.0587 8.6475 18.6601 8.32768 19.0061 8.16147C19.3521 7.99526 19.9069 7.75356 20.2382 7.62458C20.5696 7.49507 20.9827 7.34145 21.1558 7.28221C21.3288 7.22348 21.6119 7.1354 21.7849 7.08611C21.958 7.03735 22.3119 6.94298 22.5714 6.87639C22.8309 6.81033 23.2792 6.70809 23.5676 6.64989C23.856 6.59169 24.4222 6.49627 24.8259 6.43859C25.2296 6.3804 25.9611 6.30699 26.4513 6.27553C26.9415 6.24408 27.4957 6.21209 27.6834 6.20423C27.8711 6.19636 28.042 6.18535 28.0635 6.17959ZM27.2377 16.8403C27.782 16.8513 28.2885 16.8959 28.6796 16.9662C29.0115 17.0254 29.4356 17.1182 29.6233 17.1728C29.811 17.2268 30.1414 17.3348 30.3574 17.4124C30.5739 17.49 30.9745 17.6666 31.2487 17.8045C31.5229 17.9424 31.924 18.1679 32.14 18.3058C32.3566 18.4437 32.7456 18.7263 33.0051 18.9334C33.2647 19.141 33.6469 19.4975 33.8545 19.7267C34.0616 19.9553 34.3762 20.3427 34.5529 20.5881C34.7301 20.8329 34.9776 21.2225 35.1039 21.4532C35.2303 21.6839 35.4322 22.1086 35.5527 22.397C35.6733 22.6853 35.8301 23.1336 35.9009 23.3931C35.9717 23.6527 36.0744 24.1717 36.1295 24.5466C36.184 24.9215 36.2291 25.4285 36.2291 25.6739C36.2286 25.9187 36.1803 26.4499 36.1211 26.8536C36.0618 27.2573 35.9559 27.7999 35.8862 28.0595C35.8165 28.319 35.6665 28.7673 35.5533 29.0557C35.44 29.344 35.2439 29.7687 35.1176 29.9994C34.9917 30.2301 34.8423 30.4897 34.7867 30.5762C34.7306 30.6627 34.555 30.9101 34.3961 31.1267C34.2373 31.3427 33.8828 31.7527 33.6086 32.0369C33.3344 32.3216 32.8976 32.7153 32.6381 32.9125C32.3786 33.1096 31.9654 33.3901 31.7206 33.5359C31.4757 33.6816 31.0154 33.9108 30.6982 34.0445C30.381 34.1787 29.9683 34.3328 29.7806 34.3874C29.5929 34.4419 29.216 34.5363 28.9417 34.5971C28.5543 34.6836 28.2051 34.7135 27.3688 34.7318C26.3826 34.7533 26.2358 34.7444 25.5862 34.6228C25.1966 34.5499 24.6188 34.4036 24.3016 34.2972C23.9844 34.1907 23.5125 33.9967 23.253 33.8662C22.9935 33.7356 22.6275 33.5333 22.4403 33.4169C22.2531 33.2999 21.9108 33.0593 21.6801 32.881C21.4494 32.7033 21.1212 32.4306 20.9508 32.2749C20.7804 32.1192 20.4736 31.791 20.2692 31.5461C20.0647 31.3013 19.7721 30.9117 19.618 30.681C19.4644 30.4503 19.2132 30.002 19.0601 29.6848C18.907 29.3676 18.7214 28.9193 18.6475 28.6887C18.573 28.458 18.4661 28.0805 18.4094 27.8498C18.3533 27.6191 18.2768 27.2064 18.2406 26.9322C18.2039 26.658 18.1767 26.1153 18.1793 25.7263C18.1819 25.3368 18.2202 24.7705 18.2642 24.468C18.3083 24.1654 18.4304 23.6343 18.5358 23.2883C18.6407 22.9422 18.7817 22.5291 18.8493 22.3707C18.9164 22.2124 19.0711 21.8936 19.1922 21.6629C19.3133 21.4322 19.5126 21.0899 19.6353 20.9027C19.7574 20.715 19.9603 20.4319 20.0857 20.2735C20.211 20.1152 20.5145 19.7759 20.7604 19.5206C21.0069 19.2653 21.4321 18.8888 21.7063 18.6843C21.9805 18.4793 22.3816 18.2072 22.5976 18.0793C22.8142 17.9513 23.1917 17.7537 23.4365 17.641C23.6819 17.5277 24.1302 17.3521 24.4327 17.2509C24.7352 17.1497 25.2312 17.0223 25.5337 16.9683C25.8363 16.9143 26.155 16.8592 26.2416 16.8461C26.3281 16.833 26.7764 16.8304 27.2377 16.8403ZM27.0196 18.387C26.9667 18.4872 26.8581 18.5989 26.779 18.635C26.6998 18.6712 26.564 18.6885 26.4775 18.6744C26.391 18.6602 26.2662 18.5831 26.2001 18.504C26.1341 18.4248 26.0691 18.3278 26.056 18.289C26.0366 18.2329 25.9878 18.2303 25.809 18.2759C25.6863 18.3079 25.5961 18.3514 25.6082 18.3729C25.6203 18.3944 25.6826 18.601 25.7471 18.8317C25.8111 19.0624 25.9097 19.4163 25.9652 19.6181C26.0208 19.82 26.0968 20.1031 26.1346 20.2473C26.1723 20.3915 26.2861 20.7926 26.3873 21.1386C26.489 21.4847 26.6086 21.9329 26.6537 22.1348C26.6982 22.3367 26.7601 22.7729 26.7905 23.1048C26.8209 23.4361 26.8692 23.8315 26.8975 23.983C26.9326 24.1696 26.9745 24.2582 27.028 24.2582C27.0957 24.2582 27.1067 24.0952 27.1067 23.1048C27.1067 22.2302 27.1308 21.7961 27.2063 21.309C27.2613 20.9556 27.3573 20.2536 27.4192 19.7492C27.481 19.2443 27.5481 18.6859 27.5686 18.5071C27.6016 18.2109 27.5958 18.1799 27.4999 18.1537C27.4422 18.138 27.3714 18.1265 27.3426 18.128C27.3138 18.1301 27.2509 18.1474 27.2031 18.1679C27.1549 18.1878 27.0726 18.2864 27.0196 18.387ZM27.7699 19.0519C27.7479 19.5363 27.7096 20.5813 27.6845 21.3746C27.6504 22.4457 27.6163 22.8971 27.5513 23.131C27.503 23.304 27.46 23.6317 27.4553 23.8598C27.4511 24.0947 27.47 24.2829 27.4999 24.2944C27.5287 24.306 27.5817 24.2493 27.6173 24.1686C27.653 24.0884 27.7164 23.8687 27.7589 23.6815C27.8008 23.4943 27.8706 23.1871 27.9141 22.9999C27.9571 22.8127 28.0389 22.5291 28.095 22.3707C28.1516 22.2124 28.2329 22.0001 28.2764 21.8989C28.3194 21.7977 28.4872 21.438 28.6481 21.0993C28.8096 20.7606 28.9417 20.4712 28.9417 20.457C28.9417 20.4429 29.0041 20.295 29.0807 20.1293C29.1567 19.9636 29.3455 19.5505 29.5001 19.2118L29.7806 18.5957C29.476 18.472 29.3696 18.4363 29.3481 18.4374C29.3266 18.4379 29.2322 18.5202 29.1384 18.6198C29.001 18.7656 28.9271 18.8018 28.7582 18.8049C28.6214 18.8075 28.5176 18.7766 28.4594 18.7153C28.4101 18.6639 28.3372 18.5276 28.2968 18.4122C28.2303 18.2203 28.2067 18.2009 28.0169 18.1868L27.8103 18.171L27.7699 19.0519ZM24.9476 18.6246C24.9528 18.6953 24.9213 18.8238 24.8778 18.9103C24.8348 18.9968 24.7462 19.0938 24.6812 19.1258C24.6167 19.1578 24.4925 19.1704 24.406 19.1541C24.3194 19.1373 24.1842 19.0639 24.1045 18.9911C23.9619 18.8589 23.9587 18.8589 23.7757 18.9496C23.674 19 23.5917 19.0534 23.5917 19.0676C23.5922 19.0823 23.7726 19.3769 23.9918 19.723C24.2114 20.069 24.4537 20.4554 24.5297 20.5818C24.6057 20.7076 24.8291 21.0615 25.0262 21.3683C25.2228 21.6745 25.4871 22.1138 25.6134 22.3445C25.7398 22.5752 25.8887 22.894 25.9443 23.0523C26.0004 23.2112 26.1335 23.5415 26.2416 23.7864C26.3496 24.0317 26.4581 24.2614 26.4838 24.2976C26.509 24.3337 26.5651 24.3516 26.608 24.3369C26.6605 24.3194 26.6767 24.2714 26.6568 24.1927C26.64 24.1277 26.5325 23.768 26.4177 23.3931C26.3024 23.0183 26.1865 22.6586 26.1592 22.5936C26.1325 22.5286 26.0507 22.0923 25.9789 21.6236C25.9065 21.1549 25.7996 20.4885 25.7414 20.1424C25.6837 19.7964 25.5993 19.313 25.5547 19.0676C25.5101 18.8227 25.4635 18.569 25.4509 18.504C25.4341 18.4154 25.3927 18.3865 25.2842 18.3876C25.205 18.3886 25.0949 18.4133 25.0393 18.4426C24.9769 18.4757 24.9423 18.5449 24.9476 18.6246ZM29.4514 20.0638C29.2605 20.6552 29.0435 21.351 28.969 21.6105C28.8946 21.87 28.7719 22.2475 28.6958 22.4494C28.6198 22.6512 28.408 23.1116 28.2255 23.4718C28.0431 23.8325 27.8879 24.1969 27.88 24.2824C27.8709 24.3862 27.8926 24.4432 27.945 24.4533C27.9912 24.4627 28.0693 24.3872 28.1333 24.2719C28.193 24.1634 28.4216 23.768 28.6408 23.3931C28.9711 22.8269 29.261 22.4478 30.3532 21.1517C31.0762 20.294 31.6676 19.5804 31.6676 19.5657C31.6676 19.5515 31.5717 19.4745 31.4537 19.3953C31.3127 19.3004 31.2282 19.2705 31.2047 19.3088C31.1858 19.3408 31.1166 19.3937 31.0516 19.4268C30.9871 19.4598 30.8513 19.487 30.7501 19.487C30.6431 19.487 30.5309 19.4488 30.4806 19.3953C30.4334 19.345 30.3741 19.2506 30.3495 19.1856C30.3249 19.1206 30.3044 19.0089 30.3044 18.9365C30.3044 18.8432 30.2593 18.7829 30.1471 18.7268C30.0606 18.6838 29.9783 18.6482 29.9641 18.6482C29.95 18.6482 29.907 18.7247 29.8682 18.8186C29.8299 18.9124 29.6422 19.4729 29.4514 20.0638ZM23.1067 19.3235C23.0445 19.3801 23.0139 19.4827 23.015 19.6312C23.016 19.7985 22.9846 19.8866 22.8881 19.9851C22.7984 20.0764 22.7025 20.1162 22.5735 20.1162C22.4713 20.1162 22.3344 20.0905 22.2694 20.0585C22.175 20.0124 22.1268 20.0203 22.0256 20.0979C21.9564 20.1513 21.8919 20.2242 21.8814 20.2604C21.8714 20.2966 22.379 20.8036 23.0097 21.3877C23.6399 21.9717 24.3519 22.6266 24.591 22.8426C24.8306 23.0592 25.1604 23.4131 25.3245 23.6291C25.4881 23.8456 25.7377 24.1502 25.8793 24.3065C26.036 24.4795 26.1619 24.577 26.2017 24.5555C26.2379 24.5361 26.2672 24.4968 26.2672 24.468C26.2672 24.4391 26.0402 24.0795 25.7623 23.6684C25.485 23.2573 25.1693 22.7446 25.0619 22.528C24.9544 22.312 24.7866 21.9581 24.6896 21.7416C24.5926 21.5256 24.2707 20.8586 23.9744 20.2604C23.6782 19.6622 23.4187 19.1746 23.3967 19.1767C23.3752 19.1788 23.3222 19.194 23.2787 19.2097C23.2357 19.2254 23.1581 19.2768 23.1067 19.3235ZM30.6478 21.4008C30.2415 22.0063 29.8037 22.667 29.6747 22.8688C29.5452 23.0707 29.2747 23.4131 29.0728 23.6291C28.8704 23.8456 28.5936 24.1581 28.4562 24.3238C28.2481 24.576 28.2182 24.6384 28.2727 24.706C28.3293 24.7757 28.418 24.7081 28.915 24.2174C29.2322 23.9043 29.6333 23.5415 29.8063 23.411C29.9793 23.2804 30.3925 22.9952 30.7239 22.7771C31.0558 22.559 31.5864 22.1988 31.9036 21.9765C32.2208 21.7542 32.6502 21.4632 32.8578 21.3295C33.0654 21.1958 33.2369 21.0626 33.239 21.0338C33.2416 21.0049 33.1818 20.9226 33.1068 20.8502C32.9884 20.7365 32.9291 20.7207 32.6596 20.7323C32.4079 20.7428 32.3293 20.7255 32.2444 20.6405C32.1594 20.5556 32.1421 20.4769 32.1526 20.2258C32.1647 19.9421 32.1537 19.907 32.0215 19.8064C31.9424 19.7461 31.86 19.6978 31.838 19.6989C31.8165 19.6999 31.7059 19.8357 31.5926 20.0003C31.4794 20.165 31.0542 20.7952 30.6478 21.4008ZM21.365 20.7422C21.5076 21.0699 21.5485 21.2005 21.5485 21.2435C21.5485 21.287 21.4798 21.3929 21.3954 21.4794C21.2648 21.6136 21.2024 21.6367 20.9759 21.6367C20.7384 21.6367 20.6986 21.6535 20.6047 21.794C20.547 21.8805 20.4993 21.9691 20.4988 21.9906C20.4983 22.0121 20.9172 22.2349 21.4295 22.4856C21.9422 22.7357 22.7979 23.153 23.3311 23.4125C23.9367 23.7072 24.4982 24.0255 24.8254 24.2588C25.1138 24.4648 25.4619 24.7018 25.5988 24.7862C25.8127 24.9178 25.8557 24.9288 25.9002 24.8612C25.9417 24.7993 25.8772 24.7186 25.5951 24.4811C25.3985 24.3154 25.0509 24.0338 24.8217 23.8551C24.5931 23.6768 24.3226 23.4409 24.2203 23.3307C24.1181 23.2212 23.6667 22.6948 23.2173 22.161C22.768 21.6278 22.2542 21.0259 22.0754 20.824C21.8966 20.6222 21.733 20.4507 21.7121 20.4429C21.6911 20.4355 21.6041 20.4995 21.5196 20.586L21.365 20.7422ZM32.3524 22.0299C31.9072 22.4048 31.2587 22.9648 30.9105 23.2741C30.5487 23.5966 30.0926 23.9442 29.8446 24.0868C29.6066 24.2242 29.1997 24.4722 28.9402 24.6378C28.614 24.8465 28.4772 24.9634 28.4956 25.018C28.5097 25.0615 28.5511 25.0966 28.5873 25.0961C28.623 25.0961 28.8295 25.0043 29.0461 24.8927C29.2621 24.781 29.6396 24.5865 29.885 24.4601C30.1298 24.3332 30.5781 24.1523 30.8812 24.0569C31.1837 23.962 32.0215 23.6941 32.7425 23.4624C33.4634 23.2306 34.1261 23.0135 34.2158 22.9805L34.3788 22.9207C34.2205 22.5522 34.1885 22.5286 34.027 22.528C33.9258 22.5275 33.7664 22.4803 33.6731 22.4226C33.5792 22.365 33.4765 22.2648 33.445 22.1998C33.3999 22.1065 33.4109 22.0242 33.4975 21.8066L33.6076 21.5313C33.445 21.2471 33.38 21.1664 33.3585 21.169C33.3365 21.1711 33.2835 21.2125 33.2405 21.2608C33.197 21.309 32.7975 21.6551 32.3524 22.0299ZM20.1716 22.5537C20.4181 22.8898 20.471 23.024 20.4674 23.1263C20.4632 23.2369 20.4097 23.3334 20.297 23.4319C20.2068 23.5111 20.0857 23.5761 20.028 23.5761C19.9703 23.5761 19.8864 23.594 19.8413 23.6154C19.7968 23.6369 19.7359 23.7376 19.7066 23.8383C19.6772 23.9395 19.6604 24.0281 19.6699 24.0359C19.6793 24.0433 19.8995 24.0826 20.1591 24.123C20.4186 24.1628 20.8076 24.2305 21.0242 24.2729C21.2402 24.3154 21.7357 24.4009 22.1252 24.4633C22.5142 24.5256 23.0454 24.6137 23.3049 24.6593C23.5644 24.7055 24.1779 24.8722 24.6681 25.0306C25.1583 25.1889 25.6003 25.3042 25.6512 25.2864C25.7015 25.2686 25.7429 25.2245 25.7429 25.1884C25.7435 25.1522 25.6784 25.0956 25.5988 25.062C25.5196 25.0285 25.1007 24.8565 24.6681 24.6793C24.2356 24.5021 23.728 24.2635 23.5408 24.1481C23.3531 24.0333 22.8283 23.6983 22.3737 23.4036C21.9197 23.1095 21.4295 22.7975 21.2842 22.711C21.139 22.6245 20.8852 22.4662 20.7206 22.3587C20.556 22.2512 20.406 22.1631 20.3882 22.1621C20.3698 22.1615 20.3137 22.2491 20.2634 22.3571L20.1716 22.5537ZM31.1821 24.5508C30.9011 24.6782 30.3348 24.8759 29.9238 24.9907C29.5132 25.1055 29.0707 25.2319 28.9407 25.2717C28.7661 25.3252 28.7016 25.3729 28.6916 25.4563C28.6848 25.5182 28.6964 25.5685 28.7179 25.5685C28.7399 25.5685 29.1347 25.4872 29.5961 25.3881C30.382 25.2193 30.5162 25.2062 31.7195 25.1774C32.4263 25.1606 33.423 25.1176 33.9353 25.0825L34.8664 25.018C34.8643 24.7742 34.8465 24.6761 34.8255 24.6426C34.804 24.609 34.728 24.5676 34.6556 24.5513C34.5838 24.5346 34.459 24.4559 34.3783 24.3762C34.2692 24.2682 34.2331 24.1822 34.2341 24.0349C34.2357 23.8886 34.2776 23.7953 34.3987 23.6679C34.5476 23.5122 34.5571 23.4812 34.5125 23.3009C34.4858 23.1929 34.4423 23.1058 34.416 23.1069C34.3893 23.1084 33.7659 23.3821 33.0303 23.7145C32.2952 24.047 31.4637 24.4234 31.1821 24.5508ZM19.6206 24.727C19.6568 24.7396 19.7574 24.8145 19.844 24.8927C19.9614 24.9991 20.0012 25.0819 20.0012 25.2183C20.0012 25.3263 19.9588 25.4479 19.8964 25.5182C19.8387 25.5827 19.715 25.6676 19.6211 25.7069C19.4785 25.7667 19.4512 25.806 19.4518 25.9486C19.4523 26.0425 19.4696 26.1458 19.4911 26.1783C19.5194 26.2223 19.6521 26.2197 20.0012 26.1678C20.2608 26.1295 20.8155 26.0619 21.2334 26.0173C21.6518 25.9733 22.2531 25.8999 22.5704 25.8553C22.8876 25.8107 23.3951 25.7688 23.6976 25.763C24.0007 25.7572 24.5313 25.7672 24.8773 25.7856C25.2234 25.8044 25.5364 25.8102 25.572 25.7987C25.6082 25.7877 25.6381 25.7368 25.6386 25.6865C25.6391 25.6199 25.5788 25.5837 25.4158 25.5533C25.2926 25.5302 24.9088 25.4888 24.5627 25.4615C24.2167 25.4343 23.7805 25.3755 23.5928 25.331C23.4056 25.2864 22.8745 25.1349 22.4131 24.9949C21.9517 24.8544 21.3382 24.6761 21.0499 24.598C20.7615 24.5199 20.3431 24.3998 20.1192 24.3306C19.8959 24.2619 19.6924 24.2053 19.6667 24.2053C19.6416 24.2053 19.6059 24.3175 19.5876 24.4543C19.564 24.6326 19.5729 24.7102 19.6206 24.727ZM31.5098 25.7226C30.8586 25.8186 30.6106 25.8301 29.7796 25.8029C29.1766 25.7829 28.7803 25.7903 28.731 25.8228C28.688 25.8511 28.667 25.9056 28.6848 25.9444C28.7074 25.9937 28.9134 26.0267 29.3926 26.0577C29.7639 26.0813 30.316 26.1447 30.6185 26.1992C30.9215 26.2532 31.2754 26.3314 31.4049 26.3728C31.535 26.4147 31.8296 26.4991 32.0603 26.561C32.291 26.6229 32.6098 26.7073 32.7681 26.7487C32.927 26.7896 33.2809 26.884 33.5546 26.9574C33.8288 27.0313 34.1707 27.1262 34.3148 27.1682C34.459 27.2106 34.6184 27.2452 34.6688 27.2458C34.7217 27.2463 34.7715 27.1965 34.7862 27.1283C34.8004 27.0633 34.8119 26.9574 34.8124 26.8924C34.8129 26.8221 34.739 26.7115 34.6294 26.6171C34.4847 26.4928 34.4459 26.421 34.4459 26.2763C34.4459 26.1756 34.4695 26.0456 34.4984 25.9879C34.5272 25.9303 34.6216 25.8479 34.7081 25.8044C34.8481 25.7347 34.8654 25.6996 34.8654 25.4898C34.8654 25.2786 34.8533 25.2544 34.7474 25.2597C34.6829 25.2628 34.0988 25.3436 33.4497 25.4385C32.8012 25.5334 31.9282 25.6613 31.5098 25.7226ZM24.2875 26.2522C23.8088 26.3439 23.5204 26.355 21.6528 26.355C20.3074 26.355 19.5461 26.3738 19.5294 26.4074C19.5152 26.4362 19.5152 26.5427 19.5294 26.6433C19.5519 26.8011 19.5891 26.8415 19.7915 26.9317C19.9215 26.9894 20.0511 27.0837 20.0799 27.1414C20.1087 27.1991 20.1323 27.3055 20.1323 27.3774C20.1323 27.4497 20.103 27.5693 20.0668 27.6437C20.0311 27.7182 19.9483 27.8125 19.8833 27.8534C19.7726 27.9232 19.7695 27.9415 19.8308 28.1407C19.867 28.2577 19.9158 28.3578 19.9389 28.3636C19.9619 28.3693 20.1979 28.275 20.4632 28.1544C20.7285 28.0338 21.5233 27.6846 22.2296 27.3784C22.9363 27.0722 23.5613 26.8022 23.619 26.7775C23.6766 26.7534 24.0426 26.6591 24.4316 26.5673C24.8212 26.4761 25.2611 26.3612 25.41 26.3125C25.5757 26.2585 25.6722 26.1987 25.659 26.1583C25.6454 26.1164 25.5474 26.0959 25.3885 26.1007C25.2517 26.1049 25.0687 26.118 24.9822 26.129C24.8957 26.14 24.5832 26.1956 24.2875 26.2522ZM28.5716 26.4205C28.5705 26.4278 28.6827 26.485 28.8206 26.5474C28.959 26.6103 29.2605 26.7251 29.4912 26.8027C29.7219 26.8803 30.0286 26.9962 30.1728 27.0607C30.317 27.1246 30.8481 27.4308 31.3525 27.7407C31.8574 28.0506 32.3408 28.3494 32.4273 28.405C32.5139 28.4606 32.8914 28.6949 33.2662 28.9262C33.6411 29.1574 33.9599 29.3456 33.974 29.3446C33.9887 29.3435 34.0417 29.2486 34.092 29.1333C34.1832 28.9256 34.1827 28.9225 34.0511 28.7275C33.9782 28.6194 33.9185 28.4601 33.9179 28.3735C33.9179 28.2739 33.9688 28.1638 34.0579 28.0721C34.156 27.9714 34.2509 27.9279 34.3746 27.9279C34.4894 27.9279 34.5676 27.8959 34.598 27.8361C34.6242 27.7858 34.6536 27.6752 34.6635 27.5902L34.6819 27.4356C33.9914 27.3307 33.4723 27.2526 33.0827 27.1944C32.6937 27.1362 32.0446 27.0434 31.6409 26.9878C31.2372 26.9327 30.7417 26.8489 30.5398 26.8022C30.338 26.755 29.9605 26.6444 29.7009 26.5563C29.4414 26.4677 29.1053 26.3628 28.9538 26.323C28.8028 26.2831 28.6691 26.2501 28.657 26.2501C28.645 26.2501 28.6214 26.2857 28.6046 26.3287C28.5878 26.3723 28.5726 26.4132 28.5716 26.4205ZM24.4579 27.0858C24.1983 27.2075 23.7736 27.3737 23.5141 27.456C23.2546 27.5378 22.6411 27.7234 22.1509 27.8681C21.6607 28.0128 20.9765 28.2183 20.6304 28.3253C20.2844 28.4323 19.996 28.5224 19.9892 28.5256C19.9829 28.5282 20.018 28.632 20.0678 28.7552C20.1549 28.9707 20.168 28.9796 20.3814 28.9781C20.5602 28.977 20.6357 29.0074 20.7615 29.1338C20.848 29.2203 20.9188 29.344 20.9183 29.409C20.9177 29.4741 20.8705 29.6272 20.8134 29.7499L20.7091 29.9727L20.9712 30.3397C21.5202 29.8767 22.0775 29.3991 22.5641 28.9796C23.0506 28.5597 23.6169 28.0794 23.8224 27.9122C24.0279 27.7454 24.4081 27.488 24.6676 27.3401C24.9271 27.1928 25.2989 26.9815 25.4934 26.8709C25.7382 26.7319 25.8394 26.6454 25.8211 26.5909C25.8069 26.5479 25.7655 26.5133 25.7293 26.5143C25.6937 26.5154 25.4986 26.5946 25.2968 26.6905C25.0949 26.787 24.7174 26.9647 24.4579 27.0858ZM28.526 27.002C28.6245 27.0837 28.8463 27.2463 29.0193 27.3637C29.1924 27.4812 29.4624 27.6857 29.6191 27.8183C29.7764 27.9504 30.1891 28.3767 30.5367 28.7652C30.8848 29.1537 31.4956 29.8259 31.8952 30.2595C32.2942 30.6931 32.6481 31.0528 32.6816 31.0585C32.7147 31.0648 32.7986 30.994 32.8672 30.9012C32.9904 30.7361 32.991 30.7298 32.9008 30.5494C32.8436 30.4351 32.8211 30.3119 32.841 30.2217C32.8588 30.1426 32.938 30.0146 33.0172 29.9376C33.1425 29.8164 33.1955 29.8007 33.4162 29.8196C33.6395 29.839 33.6831 29.8254 33.7717 29.7105C33.8272 29.6387 33.8723 29.5616 33.8713 29.5401C33.8702 29.5186 33.5331 29.3388 33.122 29.1406C32.7115 28.9424 32.1626 28.6803 31.903 28.5581C31.6435 28.4359 31.2309 28.2472 30.9855 28.1387C30.7406 28.0301 30.4455 27.888 30.3301 27.823C30.2148 27.758 29.9552 27.5934 29.7534 27.4576C29.5515 27.3213 29.1976 27.101 28.9669 26.9673C28.7362 26.8336 28.5192 26.7241 28.4845 26.7235C28.4499 26.7225 28.4049 26.7513 28.3844 26.7875C28.3613 26.8279 28.4159 26.9102 28.526 27.002ZM24.8511 27.845C24.6608 28.0233 23.7527 28.6672 22.7932 29.3042C21.3283 30.2773 21.0829 30.4582 21.1233 30.5363C21.1495 30.5866 21.214 30.67 21.2674 30.7209C21.3477 30.7969 21.3922 30.8037 21.5217 30.7576C21.6082 30.7272 21.7383 30.7146 21.8101 30.7303C21.8825 30.746 21.9947 30.8058 22.0592 30.864C22.1603 30.9542 22.1755 31.014 22.164 31.2856C22.1514 31.587 22.1588 31.6075 22.3213 31.7312C22.4823 31.8534 22.4964 31.8555 22.5698 31.7684C22.6128 31.7181 23.0102 31.134 23.4528 30.4708C23.8953 29.8075 24.397 29.0525 24.5674 28.793C24.7373 28.5335 25.0891 28.0967 25.3492 27.822C25.6087 27.5472 25.8871 27.2526 25.9673 27.1666C26.0906 27.0355 26.1021 26.9999 26.0407 26.9453C25.981 26.8913 25.8981 26.938 25.5799 27.2028C25.3665 27.3805 25.0388 27.6699 24.8511 27.845ZM28.2449 27.456C28.3792 27.6437 28.634 28.0212 28.8107 28.2949C28.9874 28.5691 29.5389 29.6072 30.0365 30.6019C30.5335 31.597 30.9509 32.4165 30.9629 32.4238C30.9755 32.4312 31.0626 32.3903 31.1559 32.3331C31.3142 32.2361 31.3252 32.2104 31.3127 31.9792C31.3022 31.7952 31.3258 31.6945 31.4013 31.598C31.4867 31.4895 31.547 31.468 31.7562 31.4712C31.8946 31.4733 32.0551 31.4911 32.1128 31.5105C32.1883 31.5356 32.2659 31.5016 32.388 31.3883C32.5312 31.2567 32.5469 31.2205 32.4855 31.1655C32.4457 31.1293 31.7672 30.5316 30.9782 29.8369C30.1891 29.1417 29.4257 28.4428 29.2815 28.2834C29.1373 28.1234 28.8426 27.7785 28.6261 27.5158C28.4101 27.2531 28.193 27.0376 28.1437 27.0371C28.095 27.0371 28.0426 27.0544 28.0273 27.0759C28.0127 27.0974 28.1107 27.2688 28.2449 27.456ZM25.6208 28.2687C25.5164 28.4705 25.2616 28.848 25.055 29.1076C24.8479 29.3671 24.4154 29.8862 24.0935 30.2611C23.7715 30.6359 23.3149 31.1728 23.0784 31.4539L22.649 31.9651C22.951 32.1805 23.0396 32.211 23.0816 32.1816C23.1177 32.1564 23.2299 32.1087 23.3306 32.0752C23.4606 32.0322 23.5561 32.0301 23.6583 32.0683C23.738 32.0982 23.8381 32.1753 23.8822 32.2403C23.9257 32.3053 23.9744 32.4527 23.9897 32.568C24.0106 32.7216 24.0526 32.7956 24.1464 32.8433C24.2167 32.8794 24.3042 32.9099 24.3399 32.9109C24.3761 32.912 24.4337 32.8475 24.4678 32.7667C24.5019 32.6865 24.6859 32.125 24.8763 31.5194C25.0671 30.9138 25.2553 30.324 25.2947 30.2086C25.334 30.0933 25.4299 29.7866 25.508 29.527C25.5862 29.2675 25.7089 28.9136 25.7812 28.7406C25.853 28.5675 26.0392 28.1722 26.1944 27.8623C26.3496 27.5525 26.4764 27.2751 26.4764 27.2463C26.4764 27.2174 26.4319 27.1938 26.3779 27.1938C26.3134 27.1938 26.1965 27.3186 26.0444 27.5478C25.916 27.7423 25.7251 28.0668 25.6208 28.2687ZM27.923 28.2162C28.128 28.8501 28.2491 29.3425 28.3409 29.9203C28.4117 30.3675 28.5155 30.9925 28.5711 31.3097C28.6261 31.6269 28.7262 32.1863 28.7934 32.5528C28.9134 33.2129 28.916 33.2187 29.0456 33.1904C29.1179 33.1741 29.2123 33.1526 29.2553 33.1416C29.3014 33.1301 29.3502 33.0289 29.3722 32.8973C29.3937 32.7741 29.4645 32.6199 29.5295 32.5554C29.595 32.4904 29.702 32.4254 29.7665 32.4112C29.8315 32.3966 29.9437 32.4081 30.0155 32.4369C30.0879 32.4658 30.2001 32.546 30.2646 32.6147L30.3825 32.74L30.8319 32.5156C29.7895 30.9311 29.3979 30.3292 29.2888 30.1562C29.1803 29.9832 28.979 29.6649 28.8421 29.4484C28.7048 29.2324 28.4908 28.7956 28.3655 28.4784C28.2407 28.1612 28.0656 27.7533 27.976 27.5719C27.8868 27.3905 27.7851 27.2431 27.7505 27.2442C27.7159 27.2452 27.6755 27.2641 27.6614 27.2856C27.6467 27.3071 27.7647 27.726 27.923 28.2162ZM26.5069 28.1638C26.4298 28.481 26.3302 28.8706 26.2856 29.0289C26.2405 29.1878 26.1325 29.4825 26.0449 29.6843C25.9579 29.8862 25.7713 30.293 25.6307 30.5887C25.4902 30.8845 25.3754 31.1382 25.3754 31.1524C25.3754 31.1671 25.2726 31.4088 25.1473 31.6898C25.022 31.9708 24.8448 32.3719 24.7541 32.5811C24.6634 32.7903 24.5889 32.9733 24.5889 32.9875C24.5889 33.0021 24.6775 33.0399 24.7856 33.0713C24.9706 33.1259 24.9937 33.1191 25.1657 32.9628C25.2669 32.8711 25.4084 32.7825 25.4803 32.7662C25.5526 32.7499 25.6706 32.7699 25.7424 32.8108C25.8148 32.8517 25.9327 32.9964 26.0046 33.1327C26.1252 33.3608 26.1514 33.3807 26.3323 33.3807H26.5289C26.575 32.3038 26.6091 31.2719 26.6337 30.3921C26.6699 29.0955 26.6988 28.6991 26.7863 28.2949C26.8461 28.0212 26.8948 27.6967 26.8954 27.574C26.8959 27.4093 26.8754 27.3511 26.8162 27.3511C26.7727 27.3511 26.7166 27.4041 26.6914 27.4691C26.6668 27.5341 26.5834 27.8466 26.5069 28.1638ZM27.1968 28.6011C27.201 29.2544 27.1827 29.9071 27.1565 30.0513C27.1303 30.1955 27.0836 30.5022 27.0527 30.7329C27.0222 30.9636 26.9625 31.4004 26.92 31.7029C26.8781 32.006 26.8199 32.5014 26.7905 32.8039C26.7617 33.107 26.7381 33.3723 26.7386 33.3938C26.7386 33.4153 26.8393 33.4342 26.9614 33.4347C27.1717 33.4363 27.1906 33.4242 27.2891 33.2187C27.351 33.0902 27.4585 32.9691 27.5513 32.9235C27.6446 32.8779 27.762 32.8606 27.8396 32.8815C27.912 32.9004 28.0363 32.9796 28.116 33.0567C28.1962 33.1343 28.2612 33.2265 28.2601 33.2627C28.2596 33.302 28.3273 33.3283 28.4295 33.3277C28.5233 33.3272 28.6355 33.3052 28.6785 33.279C28.7483 33.2365 28.7472 33.1988 28.6686 32.9518C28.6198 32.7987 28.5055 32.4133 28.4143 32.0961C28.3236 31.7789 28.2187 31.4135 28.1815 31.2835C28.1443 31.1539 28.0488 30.8352 27.9697 30.5756C27.8905 30.3161 27.7825 29.9386 27.7295 29.7367C27.6766 29.5349 27.6095 29.2046 27.5806 29.0027C27.5518 28.8009 27.5041 28.3646 27.4737 28.0327C27.4438 27.7014 27.4008 27.4156 27.3783 27.3978C27.3562 27.38 27.3043 27.3763 27.264 27.3889C27.2026 27.4083 27.1911 27.6185 27.1968 28.6011ZM9.46265 17.6782C9.72218 17.6902 10.1705 17.7458 10.4588 17.8019C10.7472 17.8585 11.1604 17.9687 11.3764 18.0468C11.5929 18.1249 11.9348 18.2722 12.1366 18.3734C12.3385 18.4746 12.6809 18.6786 12.8969 18.8254C13.1129 18.9727 13.5156 19.3177 13.7908 19.5914C14.0661 19.8656 14.4006 20.2546 14.5338 20.4565C14.6669 20.6583 14.8704 21.0123 14.9857 21.243C15.1016 21.4736 15.2568 21.8396 15.3302 22.0556C15.4041 22.2722 15.5121 22.6906 15.5703 22.9863C15.639 23.3355 15.6757 23.735 15.6757 24.1266C15.6757 24.5152 15.638 24.9304 15.5687 25.2932C15.5095 25.6031 15.4004 26.0456 15.3255 26.2763C15.2505 26.507 15.11 26.8551 15.013 27.0497C14.916 27.2442 14.7576 27.5273 14.6612 27.6788C14.5647 27.8304 14.3717 28.0957 14.2333 28.2687C14.0944 28.4417 13.8605 28.6976 13.7143 28.8365C13.5675 28.976 13.2822 29.2151 13.0804 29.3687C12.8785 29.5218 12.5131 29.7546 12.2677 29.8862C12.0228 30.0178 11.5746 30.2071 11.2715 30.3072C10.969 30.4068 10.5086 30.5169 10.2491 30.5515C9.95707 30.5908 9.47838 30.6045 8.99077 30.5866C8.37471 30.5646 8.10207 30.53 7.73243 30.4267C7.4729 30.3544 7.08387 30.2196 6.86733 30.1279C6.65131 30.0356 6.36819 29.8998 6.23816 29.8264C6.10865 29.7525 5.82553 29.5684 5.60899 29.4174C5.39297 29.267 5.08468 29.0174 4.92477 28.8632C4.76433 28.7091 4.50322 28.4181 4.34488 28.2162C4.18602 28.0144 3.9721 27.7077 3.86881 27.5346C3.76552 27.3616 3.62815 27.1142 3.56366 26.9841C3.49917 26.8546 3.39169 26.5951 3.3251 26.4074C3.25851 26.2202 3.15051 25.8663 3.08549 25.6209C2.98168 25.2319 2.96648 25.0458 2.96543 24.1529C2.96438 23.2642 2.97958 23.0686 3.08182 22.6586C3.14684 22.3991 3.26218 22.0216 3.33821 21.8197C3.41423 21.6178 3.56681 21.2818 3.67744 21.0726C3.78807 20.8634 3.96581 20.5687 4.07276 20.4172C4.1792 20.2656 4.39731 19.9909 4.55775 19.8064C4.71766 19.6218 5.02596 19.3298 5.24197 19.1567C5.45851 18.9842 5.76523 18.7598 5.92357 18.6581C6.08244 18.5564 6.40069 18.386 6.63139 18.2796C6.86208 18.1731 7.20446 18.0379 7.39163 17.9791C7.57934 17.9199 7.874 17.8449 8.04702 17.8119C8.22004 17.7789 8.50317 17.7306 8.67619 17.7044C8.84921 17.6787 9.20312 17.6666 9.46265 17.6782ZM13.3179 30.8567C13.3771 30.875 13.4574 30.961 13.4962 31.0475C13.535 31.134 13.5842 31.2641 13.6052 31.3359C13.6267 31.4082 13.805 31.7857 14.0016 32.1748C14.1987 32.5643 14.54 33.1542 14.7608 33.4855C14.9815 33.8174 15.3543 34.3334 15.5892 34.6322C15.8241 34.9316 16.3825 35.5335 16.8292 35.9702C17.2764 36.407 17.9402 36.9879 18.3041 37.2616C18.6685 37.5348 19.2226 37.9118 19.5362 38.0984C19.8497 38.2856 20.3541 38.5598 20.6566 38.7087C20.9597 38.8571 21.3608 39.039 21.548 39.1124C21.7357 39.1863 22.1367 39.329 22.4393 39.4296C22.7423 39.5308 23.2378 39.6724 23.5403 39.7442C23.8434 39.816 24.2796 39.9125 24.5103 39.9581C24.741 40.0037 25.2957 40.0761 25.7424 40.1191C26.1896 40.1616 26.8466 40.214 27.2031 40.236C27.697 40.2659 27.8601 40.2942 27.8905 40.354C27.9125 40.3975 27.9471 40.6214 27.9671 40.8521C27.9875 41.0828 28.0368 41.4603 28.0772 41.691C28.117 41.9217 28.2313 42.3584 28.3299 42.6609C28.429 42.964 28.5847 43.3766 28.6764 43.5785C28.7677 43.7803 28.9465 44.1227 29.0739 44.3387C29.2013 44.5553 29.3061 44.7849 29.3067 44.8499C29.3077 44.9438 29.2726 44.9726 29.1373 44.9915C29.044 45.0041 28.6015 45.0271 28.1542 45.0423C27.7075 45.0575 26.8933 45.0476 26.3454 45.0198C25.7975 44.9925 25.0189 44.9233 24.6152 44.8667C24.2114 44.8096 23.6572 44.7162 23.383 44.6596C23.1093 44.6025 22.6254 44.485 22.3082 44.399C21.991 44.3125 21.5191 44.1709 21.2596 44.0844C21 43.9974 20.6346 43.8684 20.4469 43.7976C20.2597 43.7269 19.7758 43.5229 19.3721 43.3441C18.9684 43.1653 18.3313 42.8528 17.9564 42.6494C17.5816 42.4454 17.0038 42.1031 16.6719 41.8876C16.3405 41.6721 15.9038 41.3753 15.7019 41.2285C15.5001 41.0812 15.1582 40.8196 14.9417 40.6465C14.7257 40.4735 14.2774 40.0929 13.9455 39.8003C13.6141 39.5077 13.1538 39.0694 12.9231 38.8261C12.6924 38.5823 12.3248 38.1718 12.1062 37.9139C11.8876 37.6554 11.5442 37.2202 11.3433 36.946C11.1425 36.6723 10.8463 36.2476 10.6853 36.0022C10.5239 35.7574 10.2135 35.2383 9.99482 34.8487C9.77619 34.4597 9.41704 33.7283 9.19578 33.2234C8.97504 32.719 8.77948 32.2309 8.76165 32.1386C8.73229 31.9907 8.74382 31.9687 8.8597 31.9451C8.93205 31.931 9.2739 31.9079 9.61994 31.8943C9.96599 31.8806 10.4143 31.8308 10.6161 31.7836C10.818 31.7359 11.1955 31.6358 11.455 31.5603C11.7146 31.4843 12.0569 31.3652 12.2153 31.2955C12.3741 31.2253 12.663 31.0905 12.857 30.9951C13.0861 30.8834 13.2482 30.8346 13.3179 30.8567ZM35.8353 33.9102C36.0949 33.9071 36.508 33.9307 36.7529 33.9627C36.9983 33.9947 37.3873 34.0759 37.618 34.143C37.8487 34.2101 38.179 34.3213 38.352 34.3895C38.525 34.4581 38.8082 34.5939 38.9812 34.6915C39.1542 34.789 39.3666 34.9174 39.4531 34.9767C39.5391 35.0359 39.775 35.2173 39.9774 35.3799C40.1792 35.5419 40.4634 35.8014 40.6092 35.9566C40.7549 36.1113 40.9709 36.3682 41.0889 36.5265C41.2074 36.6854 41.3799 36.9449 41.4727 37.1033C41.565 37.2621 41.7359 37.616 41.8523 37.8897C41.9682 38.1639 42.1223 38.6238 42.1947 38.9121C42.309 39.3683 42.3263 39.5528 42.3268 40.3278C42.3273 41.121 42.3116 41.2825 42.1858 41.7958C42.1076 42.113 41.9483 42.597 41.8313 42.8707C41.7144 43.1449 41.4648 43.6047 41.2771 43.8931C41.0601 44.226 40.7513 44.6004 40.4304 44.9186C40.1525 45.1944 39.7362 45.5467 39.5055 45.7019C39.2748 45.8571 38.8737 46.0836 38.6142 46.2047C38.3546 46.3259 37.9184 46.4858 37.6442 46.5597C37.3705 46.6336 36.9458 46.7186 36.7005 46.749C36.4556 46.7789 36.0781 46.803 35.8616 46.8019C35.6455 46.8014 35.2444 46.7689 34.9702 46.7301C34.6965 46.6913 34.2834 46.6069 34.0527 46.5429C33.822 46.479 33.4094 46.3211 33.1352 46.1922C32.8615 46.0632 32.4368 45.8236 32.1914 45.66C31.9466 45.4964 31.5334 45.1483 31.2739 44.8866C31.0143 44.6245 30.6714 44.2113 30.5115 43.968C30.3516 43.7253 30.1466 43.3845 30.0564 43.2115C29.9662 43.0384 29.8336 42.7317 29.7623 42.5299C29.691 42.328 29.5798 41.939 29.5148 41.6648C29.4194 41.2579 29.3979 41.013 29.3979 40.3278C29.3979 39.6425 29.4194 39.3976 29.5148 38.9908C29.5798 38.7171 29.6899 38.3275 29.7607 38.1257C29.8315 37.9238 30.0213 37.5227 30.1823 37.2343C30.3437 36.946 30.6069 36.5449 30.7674 36.343C30.9283 36.1412 31.202 35.8392 31.3766 35.6719C31.5507 35.5047 31.9177 35.2184 32.1914 35.0359C32.4656 34.8535 32.9018 34.6097 33.1614 34.4943C33.4209 34.379 33.8105 34.2327 34.0265 34.1692C34.243 34.1053 34.6321 34.0224 34.8916 33.9847C35.1511 33.9469 35.5758 33.9134 35.8353 33.9102Z" fill="#E95420"/>
</g>
</g>
</g>
</g>
</g>
</g>
</svg>
