<svg width="124" height="124" viewBox="0 0 124 124" fill="none" xmlns="http://www.w3.org/2000/svg">
<path opacity="0.98" fill-rule="evenodd" clip-rule="evenodd" d="M82.1015 7.00062C82.8233 6.99215 83.8441 7.07086 84.4629 7.18348C85.0623 7.29246 86.0698 7.53465 86.7031 7.72234C87.3364 7.91004 88.3706 8.3266 89.0039 8.6475C89.6372 8.96961 90.5636 9.53391 91.0625 9.90324C91.5626 10.2714 92.3182 10.8962 92.7433 11.291C93.1683 11.6857 93.884 12.4995 94.332 13.0989C94.7813 13.6983 95.3964 14.6525 95.6992 15.218C96.0031 15.7848 96.4415 16.8189 96.674 17.5188C96.9065 18.2188 97.1838 19.2807 97.2879 19.8802C97.3969 20.4989 97.4792 21.6493 97.4792 22.5442C97.4792 23.41 97.4005 24.6089 97.3037 25.2083C97.208 25.8077 96.9561 26.7886 96.7442 27.388C96.5335 27.9874 96.1872 28.8326 95.9753 29.2649C95.7633 29.6972 95.3819 30.379 95.1264 30.7786C94.8721 31.1782 94.4386 31.7776 94.1649 32.1094C93.89 32.4412 93.5292 32.8699 93.3633 33.06C93.1962 33.2513 92.5701 33.8023 91.9707 34.2867C91.3713 34.7711 90.4171 35.431 89.8515 35.7531C89.286 36.0752 88.3863 36.51 87.8535 36.7195C87.3207 36.9277 86.3677 37.2293 85.7344 37.3879C84.7123 37.6446 84.3151 37.6773 82.1621 37.6773C79.8928 37.6761 79.6676 37.6555 78.5898 37.3479C77.9565 37.1675 77.1391 36.9047 76.7734 36.7643C76.4077 36.625 75.6715 36.2908 75.1387 36.0244C74.6058 35.7568 73.734 35.23 73.2012 34.8534C72.6683 34.4768 71.765 33.7066 71.1922 33.1399C70.5819 32.5369 69.8202 31.6093 69.3528 30.8997C68.9144 30.2337 68.3659 29.2795 68.1346 28.7805C67.9033 28.2816 67.5715 27.4364 67.3971 26.9036C67.2228 26.3708 66.9999 25.4444 66.9019 24.845C66.8038 24.2456 66.7239 23.0734 66.7239 22.2415C66.7239 21.4096 66.8014 20.2652 66.8946 19.6985C66.989 19.1318 67.207 18.2466 67.379 17.7307C67.5509 17.2149 67.8452 16.452 68.0341 16.0354C68.2218 15.6189 68.6783 14.8148 69.0464 14.2493C69.4146 13.6838 70.0055 12.893 70.3603 12.4934C70.7139 12.0938 71.2806 11.5077 71.6185 11.1917C71.9563 10.8756 72.6417 10.3234 73.1406 9.965C73.6395 9.60777 74.4303 9.11371 74.8965 8.86789C75.3627 8.62328 76.0711 8.29512 76.4707 8.13891C76.8703 7.98269 77.4697 7.76957 77.8027 7.66543C78.1357 7.56129 78.8175 7.39539 79.3164 7.2973C79.8153 7.19922 80.3614 7.09629 80.5273 7.06723C80.6932 7.03937 81.4028 7.0091 82.1015 7.00062ZM99.418 29.9879C99.4507 29.9842 99.5923 30.0787 99.7316 30.1986C99.8708 30.3172 100.204 30.6878 100.47 31.0208C100.738 31.3538 101.42 32.3068 101.985 33.1399C102.551 33.9718 103.251 35.0617 103.54 35.5618C103.829 36.0607 104.431 37.205 104.877 38.1048C105.322 39.0045 105.878 40.2021 106.112 40.7688C106.345 41.3355 106.708 42.2886 106.92 42.888C107.13 43.4874 107.495 44.6317 107.729 45.4309C107.964 46.2302 108.288 47.5113 108.453 48.2766C108.616 49.042 108.858 50.2965 108.99 51.0618C109.122 51.8271 109.323 53.2996 109.437 54.3313C109.56 55.4393 109.646 57.1758 109.647 58.5696C109.649 60.0021 109.568 61.6684 109.443 62.8079C109.329 63.8396 109.125 65.3387 108.988 66.138C108.851 66.9372 108.651 67.9725 108.544 68.4387C108.436 68.905 108.166 69.9125 107.944 70.679C107.723 71.4455 107.38 72.5354 107.184 73.1009C106.986 73.6664 106.691 74.4571 106.527 74.8567C106.363 75.2563 106.039 76.0192 105.807 76.552C105.576 77.0848 105.057 78.1747 104.656 78.9739C104.256 79.7731 103.585 80.9998 103.165 81.6985C102.746 82.3972 102.1 83.4059 101.733 83.9388C101.365 84.4716 100.803 85.2478 100.484 85.6643C100.164 86.0809 99.8067 86.4224 99.6904 86.4236C99.5439 86.426 99.3392 86.1342 99.0292 85.4851C98.7822 84.968 98.3196 84.1325 97.9999 83.63C97.6815 83.1262 97.1378 82.3633 96.7939 81.9347C96.4487 81.5048 95.8493 80.8472 95.4618 80.473C95.0731 80.0989 94.3199 79.4595 93.7871 79.0538C93.2543 78.6482 92.7227 78.2316 92.6064 78.1299C92.4902 78.0282 92.3957 77.8223 92.3969 77.6721C92.3982 77.522 92.6936 76.9093 93.0521 76.3098C93.4105 75.7104 93.9445 74.7296 94.2376 74.1302C94.5306 73.5307 95.021 72.4143 95.3274 71.6477C95.6338 70.8812 95.9922 69.9282 96.1242 69.5286C96.2562 69.129 96.4584 68.4751 96.5735 68.0755C96.6885 67.6759 96.9113 66.7761 97.0699 66.0774C97.2286 65.3787 97.4744 63.9341 97.6173 62.8684C97.8098 61.4395 97.8776 60.2952 97.8801 58.5091C97.8809 56.8945 97.8127 55.5826 97.6754 54.5735C97.5628 53.7404 97.3303 52.3781 97.1596 51.5462C96.99 50.713 96.6946 49.4876 96.5032 48.8216C96.3119 48.1555 95.9958 47.148 95.7997 46.5813C95.6035 46.0146 95.2099 45.0071 94.9242 44.3411C94.6384 43.6751 94.1637 42.6676 93.8682 42.1009C93.5728 41.5341 92.9879 40.5266 92.5701 39.8606C92.1511 39.1946 91.7757 38.5673 91.7358 38.468C91.6946 38.3687 91.7309 38.1992 91.8169 38.0927C91.9017 37.9849 92.4878 37.5175 93.1211 37.0512C93.7544 36.5862 94.6529 35.8512 95.1191 35.4189C95.5853 34.9854 96.3809 34.1184 96.8883 33.4923C97.3945 32.865 98.1029 31.8624 98.4625 31.263C98.821 30.6636 99.1697 30.1332 99.2363 30.0847C99.3029 30.0351 99.3853 29.9915 99.418 29.9879ZM64.8154 14.2723C64.8651 14.2602 64.9874 14.2759 65.0879 14.3098C65.1884 14.3425 65.2683 14.4927 65.2671 14.6429C65.2647 14.793 65.0794 15.4057 64.853 16.0052C64.6277 16.6046 64.3262 17.5854 64.1821 18.1848C64.038 18.7843 63.8721 19.9552 63.8128 20.7884C63.7534 21.6203 63.7498 22.9014 63.8043 23.6341C63.8588 24.3667 63.8842 25.0339 63.86 25.1175C63.8358 25.201 63.5851 25.2943 63.3017 25.3245C63.0184 25.356 62.27 25.4129 61.6367 25.4529C61.0034 25.4929 59.9135 25.6067 59.2148 25.706C58.5161 25.8053 57.2083 26.0499 56.3086 26.2485C55.4089 26.4483 54.1289 26.7777 53.4629 26.9811C52.7969 27.1845 51.6792 27.5841 50.9805 27.8687C50.2817 28.1533 49.0817 28.6994 48.3164 29.0821C47.5511 29.4647 46.4334 30.0787 45.834 30.4468C45.2346 30.8161 44.336 31.3901 43.8359 31.7231C43.337 32.0561 42.2738 32.8481 41.4746 33.4838C40.6754 34.1196 39.4196 35.2421 38.6846 35.9784C37.9508 36.7146 36.9408 37.8081 36.4419 38.4075C35.9418 39.0069 35.1547 40.0822 34.6897 40.7967C34.0322 41.809 33.7851 42.0972 33.5732 42.0984C33.4231 42.0996 33.015 41.8611 32.665 41.568C32.3151 41.275 31.5933 40.7652 31.0605 40.4346C30.5277 40.1052 29.7927 39.6838 29.4258 39.4986C29.0601 39.3133 28.2972 38.9754 27.7305 38.7466C27.1637 38.5189 26.0473 38.1689 25.248 37.9704C24.4488 37.7718 23.7537 37.5853 23.7041 37.555C23.6544 37.5235 23.6133 37.417 23.6133 37.3177C23.6133 37.2184 23.7876 36.8502 24.002 36.5003C24.2151 36.1503 24.6329 35.5097 24.9308 35.0774C25.2287 34.6451 25.7179 33.9634 26.0194 33.5637C26.3197 33.1641 27.0874 32.2123 27.7232 31.4495C28.3601 30.6854 29.5892 29.3497 30.4551 28.4814C31.3209 27.6132 32.6565 26.3817 33.4219 25.7459C34.1872 25.109 35.277 24.2311 35.8437 23.7939C36.4105 23.358 37.3901 22.6471 38.0234 22.2173C38.6567 21.7862 39.9089 21.0087 40.8086 20.4905C41.7083 19.9722 43.0973 19.2335 43.8965 18.8496C44.6957 18.4658 45.9769 17.9075 46.7422 17.6096C47.5075 17.3105 48.4617 16.9557 48.8613 16.8189C49.2609 16.6833 49.9148 16.4798 50.3144 16.366C50.7141 16.2534 51.5314 16.0354 52.1308 15.8816C52.7303 15.7291 53.7656 15.4929 54.4316 15.3585C55.0976 15.2241 56.4055 15.0037 57.3379 14.8705C58.2703 14.7361 59.9596 14.5666 61.0918 14.4939C62.224 14.4212 63.504 14.3474 63.9375 14.3292C64.371 14.3111 64.7658 14.2856 64.8154 14.2723ZM62.9082 38.8943C64.1651 38.9197 65.3349 39.0227 66.2383 39.1849C67.0048 39.3218 67.9844 39.5361 68.418 39.662C68.8515 39.7868 69.6144 40.0362 70.1133 40.2154C70.6134 40.3946 71.5385 40.8027 72.1719 41.1212C72.8052 41.4397 73.7316 41.9604 74.2305 42.2789C74.7306 42.5973 75.6291 43.25 76.2285 43.7284C76.8279 44.2079 77.7107 45.0313 78.1902 45.5605C78.6685 46.0885 79.3951 46.9834 79.8032 47.5501C80.2125 48.1156 80.784 49.0153 81.0759 49.5481C81.3677 50.0809 81.8339 51.0618 82.1124 51.7278C82.391 52.3938 82.753 53.4292 82.9165 54.0286C83.08 54.628 83.3173 55.8268 83.4445 56.6927C83.5704 57.5585 83.6746 58.7295 83.6746 59.2962C83.6733 59.8617 83.5619 61.0884 83.4251 62.0208C83.2883 62.9532 83.0437 64.2065 82.8826 64.8059C82.7215 65.4053 82.3752 66.4407 82.1137 67.1067C81.8521 67.7727 81.3992 68.7536 81.1074 69.2864C80.8167 69.8192 80.4716 70.4186 80.3433 70.6184C80.2137 70.8182 79.808 71.3898 79.4411 71.8899C79.0742 72.3888 78.2556 73.3358 77.6223 73.9921C76.989 74.6497 75.9803 75.5591 75.3808 76.0144C74.7814 76.4697 73.8272 77.1175 73.2617 77.4542C72.6962 77.7908 71.633 78.32 70.9004 78.6288C70.1678 78.9388 69.2148 79.2948 68.7812 79.4207C68.3477 79.5467 67.4771 79.7646 66.8437 79.9051C65.9489 80.1049 65.1424 80.174 63.2109 80.2163C60.9332 80.266 60.5941 80.2454 59.0937 79.9645C58.194 79.7961 56.8596 79.4583 56.1269 79.2125C55.3943 78.9666 54.3045 78.5186 53.7051 78.2171C53.1057 77.9156 52.2604 77.4481 51.8281 77.1793C51.3958 76.9093 50.6051 76.3534 50.0723 75.9417C49.5394 75.5312 48.7814 74.9015 48.3878 74.5419C47.9943 74.1822 47.2859 73.4242 46.8136 72.8587C46.3414 72.2932 45.6657 71.3934 45.3096 70.8606C44.9548 70.3278 44.3748 69.2925 44.0212 68.5598C43.6676 67.8272 43.2389 66.7919 43.0682 66.2591C42.8962 65.7262 42.6492 64.8544 42.5184 64.3216C42.3889 63.7887 42.2121 62.8357 42.1285 62.2024C42.0437 61.5691 41.9808 60.3158 41.9868 59.4173C41.9929 58.5175 42.0813 57.2097 42.183 56.511C42.2847 55.8123 42.5669 54.5856 42.8103 53.7864C43.0524 52.9872 43.3782 52.033 43.5344 51.6673C43.6894 51.3016 44.0466 50.5653 44.3264 50.0325C44.6061 49.4997 45.0662 48.7089 45.3496 48.2766C45.6317 47.8431 46.1004 47.1892 46.3898 46.8235C46.6792 46.4578 47.3803 45.6743 47.9483 45.0846C48.5174 44.4949 49.4995 43.6254 50.1328 43.1532C50.7661 42.6797 51.6925 42.0512 52.1914 41.7557C52.6915 41.4603 53.5634 41.0037 54.1289 40.7434C54.6956 40.4818 55.731 40.0762 56.4297 39.8425C57.1284 39.6087 58.2739 39.3145 58.9726 39.1898C59.6714 39.065 60.4076 38.9379 60.6074 38.9076C60.8072 38.8773 61.8426 38.8713 62.9082 38.8943ZM62.4044 42.4666C62.2821 42.6978 62.0315 42.9558 61.8486 43.0393C61.6658 43.1229 61.3521 43.1628 61.1523 43.1302C60.9525 43.0975 60.6643 42.9195 60.5117 42.7366C60.3592 42.5537 60.209 42.3297 60.1787 42.2401C60.1339 42.1105 60.0213 42.1045 59.6084 42.2098C59.325 42.2837 59.1167 42.3842 59.1446 42.4339C59.1725 42.4835 59.3166 42.9606 59.4655 43.4934C59.6132 44.0262 59.8409 44.8436 59.9692 45.3098C60.0976 45.7761 60.2732 46.43 60.3604 46.763C60.4476 47.096 60.7103 48.0223 60.944 48.8216C61.179 49.6208 61.4551 50.6561 61.5592 51.1223C61.6621 51.5886 61.805 52.5961 61.8753 53.3626C61.9455 54.1279 62.0569 55.0409 62.1223 55.3909C62.2034 55.822 62.3003 56.0266 62.4238 56.0266C62.58 56.0266 62.6055 55.65 62.6055 53.3626C62.6055 51.3427 62.6612 50.3401 62.8355 49.2151C62.9627 48.3989 63.1843 46.7775 63.3272 45.6126C63.4701 44.4464 63.6251 43.1568 63.6723 42.7439C63.7486 42.0597 63.7353 41.9882 63.5137 41.9277C63.3805 41.8914 63.217 41.8647 63.1504 41.8684C63.0838 41.8732 62.9385 41.9132 62.8283 41.9604C62.7169 42.0064 62.5267 42.2341 62.4044 42.4666ZM64.1373 44.002C64.0864 45.1209 63.998 47.5343 63.9399 49.3665C63.8612 51.8404 63.7825 52.883 63.6323 53.4231C63.5209 53.8227 63.4216 54.5796 63.4107 55.1063C63.401 55.6488 63.4446 56.0836 63.5137 56.1102C63.5803 56.1368 63.7026 56.0061 63.7849 55.8196C63.8673 55.6343 64.0138 55.1269 64.1119 54.6946C64.2087 54.2623 64.3698 53.5527 64.4703 53.1204C64.5696 52.6881 64.7585 52.033 64.8881 51.6673C65.0189 51.3016 65.2066 50.8111 65.3071 50.5774C65.4064 50.3437 65.7939 49.513 66.1656 48.7307C66.5386 47.9485 66.8437 47.28 66.8437 47.2473C66.8437 47.2146 66.9878 46.8732 67.1646 46.4905C67.3402 46.1078 67.7762 45.1536 68.1334 44.3714L68.7812 42.9485C68.0777 42.6627 67.8319 42.5804 67.7822 42.5828C67.7326 42.584 67.5146 42.7741 67.2978 43.0042C66.9806 43.3409 66.8098 43.4244 66.4199 43.4317C66.1039 43.4377 65.8641 43.3663 65.7297 43.2246C65.6158 43.1059 65.4475 42.7911 65.3543 42.5247C65.2005 42.0815 65.146 42.0367 64.7076 42.004L64.2305 41.9677L64.1373 44.002ZM57.6188 43.0151C57.6309 43.1786 57.5583 43.4753 57.4578 43.6751C57.3585 43.8749 57.1538 44.0989 57.0037 44.1728C56.8547 44.2466 56.5677 44.2757 56.3679 44.2382C56.1681 44.1994 55.8557 44.0299 55.6716 43.8616C55.3423 43.5564 55.335 43.5564 54.9124 43.7659C54.6774 43.8821 54.4873 44.0057 54.4873 44.0384C54.4885 44.0723 54.9051 44.7528 55.4113 45.552C55.9187 46.3512 56.4781 47.2437 56.6537 47.5355C56.8293 47.8262 57.3451 48.6436 57.8005 49.352C58.2546 50.0591 58.8649 51.0739 59.1567 51.6067C59.4485 52.1395 59.7924 52.8758 59.9208 53.2415C60.0504 53.6084 60.358 54.3713 60.6074 54.9368C60.8569 55.5035 61.1075 56.0339 61.1669 56.1175C61.225 56.201 61.3546 56.2422 61.4539 56.2083C61.5749 56.1679 61.6125 56.0569 61.5665 55.8753C61.5277 55.7251 61.2795 54.8944 61.0143 54.0286C60.7479 53.1628 60.4803 52.3321 60.4173 52.1819C60.3555 52.0318 60.1666 51.0243 60.0007 49.9417C59.8336 48.8591 59.5866 47.32 59.4522 46.5208C59.319 45.7216 59.124 44.6051 59.0211 44.0384C58.9182 43.4729 58.8104 42.8868 58.7813 42.7366C58.7426 42.532 58.6469 42.4653 58.3962 42.4678C58.2134 42.4702 57.9591 42.5271 57.8307 42.5949C57.6866 42.6712 57.6067 42.8311 57.6188 43.0151ZM68.0208 46.3391C67.58 47.7051 67.0787 49.312 66.9067 49.9114C66.7348 50.5108 66.4514 51.3827 66.2758 51.8489C66.1002 52.3151 65.611 53.3783 65.1896 54.2102C64.7682 55.0434 64.4098 55.885 64.3916 56.0823C64.3706 56.3221 64.4207 56.4537 64.5417 56.4771C64.6483 56.4989 64.8287 56.3245 64.9765 56.0581C65.1145 55.8075 65.6425 54.8944 66.1487 54.0286C66.9115 52.7208 67.5812 51.8453 70.1036 48.8518C71.7735 46.8707 73.1394 45.2227 73.1394 45.1887C73.1394 45.1561 72.9178 44.978 72.6453 44.7952C72.3196 44.576 72.1246 44.507 72.0701 44.5954C72.0265 44.6693 71.8667 44.7916 71.7165 44.8679C71.5676 44.9441 71.254 45.0071 71.0203 45.0071C70.7732 45.0071 70.5141 44.9187 70.3978 44.7952C70.2889 44.6789 70.152 44.461 70.0951 44.3108C70.0382 44.1607 69.991 43.9027 69.991 43.7356C69.991 43.5201 69.8868 43.3808 69.6277 43.2512C69.4279 43.152 69.2378 43.0696 69.2051 43.0696C69.1724 43.0696 69.0731 43.2464 68.9835 43.4632C68.8951 43.6799 68.4615 44.9744 68.0208 46.3391ZM53.3672 44.6293C53.2235 44.7601 53.1529 44.997 53.1553 45.3401C53.1577 45.7264 53.0851 45.9298 52.8623 46.1575C52.6552 46.3682 52.4336 46.4602 52.1357 46.4602C51.8996 46.4602 51.5835 46.4009 51.4333 46.327C51.2154 46.2205 51.104 46.2386 50.8703 46.4178C50.7104 46.5414 50.5615 46.7097 50.5373 46.7932C50.5142 46.8768 51.6864 48.0478 53.1432 49.3968C54.5987 50.7457 56.2432 52.2582 56.7954 52.7571C57.3488 53.2572 58.1105 54.0746 58.4895 54.5735C58.8673 55.0736 59.4437 55.7772 59.7706 56.138C60.1327 56.5377 60.4233 56.7629 60.5154 56.7132C60.5989 56.6684 60.6667 56.5776 60.6667 56.511C60.6667 56.4444 60.1424 55.6137 59.5006 54.6643C58.86 53.715 58.131 52.5307 57.8828 52.0305C57.6346 51.5316 57.2471 50.7143 57.023 50.2141C56.799 49.7152 56.0555 48.1749 55.3713 46.7932C54.6871 45.4116 54.0877 44.2854 54.0369 44.2902C53.9872 44.2951 53.8649 44.3302 53.7644 44.3665C53.6651 44.4028 53.4859 44.5215 53.3672 44.6293ZM70.7841 49.427C69.8456 50.8257 68.8345 52.3514 68.5366 52.8177C68.2375 53.2839 67.6127 54.0746 67.1465 54.5735C66.6791 55.0736 66.0397 55.7953 65.7224 56.178C65.2417 56.7605 65.1726 56.9046 65.2986 57.0608C65.4294 57.2218 65.634 57.0656 66.782 55.9322C67.5146 55.2093 68.441 54.3713 68.8406 54.0698C69.2402 53.7682 70.1944 53.1095 70.9597 52.6057C71.7262 52.102 72.9517 51.2701 73.6843 50.7566C74.4169 50.2432 75.4087 49.5711 75.8882 49.2623C76.3678 48.9536 76.7637 48.646 76.7686 48.5794C76.7746 48.5128 76.6366 48.3227 76.4634 48.1555C76.1898 47.8928 76.0529 47.8564 75.4305 47.8831C74.8492 47.9073 74.6676 47.8673 74.4714 47.6712C74.2753 47.475 74.2353 47.2934 74.2595 46.7133C74.2874 46.0582 74.2619 45.9771 73.9568 45.7446C73.7739 45.6053 73.5838 45.4939 73.533 45.4963C73.4833 45.4987 73.2278 45.8124 72.9662 46.1926C72.7047 46.5728 71.7226 48.0284 70.7841 49.427ZM49.3445 47.9061C49.6739 48.6629 49.7683 48.9645 49.7683 49.0637C49.7683 49.1643 49.6097 49.4089 49.4147 49.6087C49.1132 49.9187 48.9691 49.972 48.446 49.972C47.8974 49.972 47.8054 50.0107 47.5886 50.3352C47.4554 50.535 47.3452 50.7397 47.344 50.7893C47.3428 50.839 48.3103 51.3536 49.4934 51.9325C50.6777 52.5101 52.654 53.474 53.8855 54.0734C55.2841 54.7539 56.581 55.489 57.3367 56.0279C58.0027 56.5037 58.8067 57.0511 59.1228 57.2461C59.6169 57.55 59.7162 57.5754 59.8191 57.4192C59.9148 57.2763 59.7658 57.0898 59.1143 56.5413C58.6602 56.1586 57.8574 55.5084 57.3282 55.0954C56.8002 54.6837 56.1754 54.1388 55.9392 53.8845C55.7031 53.6314 54.6605 52.4156 53.6227 51.1829C52.5849 49.9514 51.3982 48.5612 50.9853 48.095C50.5724 47.6288 50.1946 47.2328 50.1461 47.2146C50.0977 47.1977 49.8967 47.3454 49.7017 47.5452L49.3445 47.9061ZM74.7209 50.8802C73.6928 51.746 72.1949 53.0393 71.3908 53.7537C70.5553 54.4984 69.5017 55.3013 68.929 55.6307C68.3792 55.9479 67.4395 56.5207 66.8401 56.9034C66.0869 57.3853 65.7708 57.6553 65.8132 57.7813C65.8459 57.8818 65.9416 57.9629 66.0251 57.9617C66.1075 57.9617 66.5846 57.7498 67.0847 57.4919C67.5836 57.2339 68.4555 56.7847 69.0222 56.4929C69.5877 56.1998 70.6231 55.782 71.323 55.5616C72.0217 55.3425 73.9568 54.7237 75.6218 54.1884C77.2869 53.6532 78.8175 53.1519 79.0246 53.0756L79.4012 52.9375C79.0355 52.0862 78.9616 52.0318 78.5886 52.0305C78.3549 52.0293 77.9868 51.9203 77.7712 51.7871C77.5545 51.6539 77.3171 51.4227 77.2445 51.2725C77.1403 51.0569 77.1658 50.8668 77.3656 50.3643L77.6199 49.7285C77.2445 49.0722 77.0943 48.8857 77.0447 48.8918C76.9938 48.8966 76.8715 48.9923 76.7722 49.1037C76.6717 49.2151 75.749 50.0143 74.7209 50.8802ZM46.5884 52.0899C47.1575 52.8661 47.2798 53.1761 47.2714 53.4122C47.2617 53.6677 47.1381 53.8905 46.8778 54.1182C46.6695 54.3011 46.3898 54.4512 46.2566 54.4512C46.1234 54.4512 45.9296 54.4924 45.8255 54.542C45.7226 54.5917 45.5821 54.8242 45.5143 55.0567C45.4465 55.2904 45.4077 55.495 45.4295 55.5132C45.4513 55.5302 45.9599 55.621 46.5593 55.7142C47.1587 55.8062 48.0573 55.9625 48.5574 56.0605C49.0563 56.1586 50.2006 56.356 51.1003 56.5001C51.9989 56.6442 53.2255 56.8477 53.8249 56.953C54.4244 57.0596 55.8412 57.4446 56.9734 57.8104C58.1056 58.1761 59.1264 58.4425 59.2439 58.4013C59.3601 58.3601 59.4558 58.2584 59.4558 58.1748C59.457 58.0913 59.3069 57.9605 59.1228 57.883C58.9399 57.8055 57.9724 57.4083 56.9734 56.999C55.9744 56.5897 54.8022 56.0387 54.3699 55.7723C53.9364 55.5071 52.7242 54.7334 51.6743 54.0528C50.6257 53.3735 49.4934 52.653 49.158 52.4532C48.8226 52.2534 48.2365 51.8877 47.8562 51.6394C47.476 51.3912 47.1297 51.1877 47.0885 51.1853C47.0461 51.1841 46.9165 51.3863 46.8003 51.6358L46.5884 52.0899ZM72.0181 56.7023C71.369 56.9966 70.0612 57.4531 69.1118 57.7183C68.1637 57.9835 67.1416 58.2753 66.8413 58.3674C66.4381 58.4909 66.2891 58.6011 66.2661 58.7936C66.2504 58.9365 66.277 59.0528 66.3267 59.0528C66.3775 59.0528 67.2894 58.8651 68.355 58.6362C70.1702 58.2463 70.4802 58.216 73.2593 58.1494C74.8916 58.1107 77.1936 58.0114 78.3767 57.9302L80.5273 57.7813C80.5225 57.2182 80.4813 56.9918 80.4329 56.9143C80.3832 56.8368 80.2076 56.7411 80.0405 56.7036C79.8746 56.6648 79.5864 56.4832 79.3999 56.2991C79.1481 56.0496 79.0645 55.8511 79.0669 55.5108C79.0706 55.1729 79.1674 54.9574 79.4472 54.6631C79.7911 54.3035 79.8129 54.232 79.7099 53.8155C79.6482 53.566 79.5477 53.365 79.4871 53.3674C79.4254 53.3711 77.9856 54.0032 76.2866 54.7709C74.5889 55.5386 72.6683 56.4081 72.0181 56.7023ZM45.3157 57.1092C45.3992 57.1383 45.6317 57.3114 45.8316 57.4919C46.1028 57.7377 46.1948 57.929 46.1948 58.2439C46.1948 58.4933 46.0967 58.7743 45.9526 58.9365C45.8194 59.0855 45.5337 59.2816 45.3169 59.3725C44.9875 59.5105 44.9246 59.6013 44.9258 59.9307C44.927 60.1475 44.9669 60.386 45.0166 60.4611C45.082 60.5628 45.3883 60.5568 46.1948 60.4369C46.7942 60.3485 48.0754 60.1923 49.0405 60.0893C50.0069 59.9876 51.3958 59.8181 52.1284 59.7152C52.861 59.6122 54.0332 59.5154 54.7319 59.502C55.4319 59.4887 56.6573 59.5117 57.4566 59.5541C58.2558 59.5977 58.9787 59.611 59.061 59.5844C59.1446 59.5589 59.2136 59.4415 59.2148 59.3252C59.216 59.1714 59.0768 59.0879 58.7002 59.0177C58.4156 58.9644 57.5292 58.8687 56.73 58.8057C55.9308 58.7428 54.9233 58.6071 54.4898 58.5042C54.0574 58.4013 52.8308 58.0513 51.7651 57.728C50.6995 57.4035 49.2827 56.9918 48.6167 56.8113C47.9507 56.6309 46.9844 56.3536 46.4673 56.1937C45.9514 56.0351 45.4816 55.9043 45.4223 55.9043C45.3641 55.9043 45.2818 56.1635 45.2394 56.4795C45.1849 56.8912 45.2055 57.0705 45.3157 57.1092ZM72.7749 59.4088C71.2709 59.6304 70.6981 59.657 68.7788 59.5941C67.3862 59.548 66.4708 59.565 66.3569 59.6401C66.2576 59.7055 66.2092 59.8314 66.2504 59.921C66.3024 60.0348 66.7783 60.1111 67.8851 60.1826C68.7425 60.2371 70.0176 60.3836 70.7163 60.5095C71.4162 60.6343 72.2336 60.8147 72.5327 60.9103C72.833 61.0072 73.5136 61.2022 74.0464 61.3451C74.5792 61.488 75.3155 61.6829 75.6812 61.7786C76.0481 61.873 76.8655 62.091 77.4976 62.2605C78.1309 62.4313 78.9204 62.6505 79.2534 62.7473C79.5864 62.8454 79.9546 62.9253 80.0708 62.9266C80.1931 62.9278 80.3081 62.8127 80.3421 62.6553C80.3747 62.5052 80.4014 62.2605 80.4026 62.1104C80.4038 61.9481 80.2331 61.6926 79.98 61.4746C79.6458 61.1877 79.5562 61.0218 79.5562 60.6875C79.5562 60.455 79.6106 60.1547 79.6772 60.0215C79.7439 59.8883 79.9618 59.6982 80.1616 59.5977C80.4849 59.4366 80.5249 59.3555 80.5249 58.8711C80.5249 58.3831 80.4971 58.3274 80.2524 58.3395C80.1035 58.3468 78.7545 58.5333 77.2554 58.7525C75.7574 58.9716 73.7412 59.2671 72.7749 59.4088ZM56.0942 60.6318C54.9887 60.8437 54.3226 60.8692 50.0093 60.8692C46.902 60.8692 45.1437 60.9128 45.105 60.9903C45.0723 61.0569 45.0723 61.3027 45.105 61.5352C45.1571 61.8997 45.243 61.9929 45.7105 62.2012C46.0108 62.3344 46.3099 62.5524 46.3765 62.6856C46.4431 62.8188 46.4976 63.0646 46.4976 63.2305C46.4976 63.3976 46.4298 63.6737 46.3462 63.8457C46.2639 64.0176 46.0725 64.2356 45.9224 64.33C45.6669 64.4911 45.6596 64.5335 45.8013 64.9936C45.8848 65.2637 45.9974 65.495 46.0507 65.5083C46.104 65.5216 46.6489 65.3036 47.2617 65.0251C47.8744 64.7466 49.7102 63.9401 51.3413 63.2329C52.9737 62.5257 54.4171 61.9021 54.5503 61.8452C54.6835 61.7895 55.5287 61.5715 56.4273 61.3596C57.327 61.1489 58.343 60.8837 58.6869 60.7711C59.0695 60.6464 59.2923 60.5083 59.2621 60.4151C59.2306 60.3182 59.0041 60.271 58.6372 60.2819C58.3212 60.2916 57.8985 60.3218 57.6987 60.3473C57.4989 60.3727 56.7772 60.5011 56.0942 60.6318ZM65.9888 61.0205C65.9864 61.0375 66.2455 61.1695 66.564 61.3136C66.8837 61.4589 67.58 61.7241 68.1128 61.9033C68.6456 62.0825 69.354 62.3502 69.687 62.4991C70.02 62.6468 71.2467 63.354 72.4116 64.0697C73.5778 64.7853 74.6942 65.4756 74.894 65.6039C75.0938 65.7323 75.9657 66.2736 76.8315 66.8076C77.6974 67.3416 78.4336 67.7764 78.4663 67.7739C78.5002 67.7715 78.6225 67.5523 78.7388 67.2859C78.9495 66.8064 78.9483 66.7991 78.6443 66.3487C78.476 66.0992 78.338 65.7311 78.3367 65.5313C78.3367 65.3012 78.4542 65.0469 78.6601 64.835C78.8865 64.6025 79.1057 64.502 79.3915 64.502C79.6567 64.502 79.8371 64.4281 79.9073 64.2901C79.9679 64.1738 80.0357 63.9183 80.0587 63.7221L80.1011 63.3649C78.5063 63.1227 77.3074 62.9423 76.4077 62.8079C75.5092 62.6735 74.0101 62.4591 73.0776 62.3308C72.1452 62.2036 71.0009 62.0099 70.5347 61.9021C70.0685 61.7931 69.1966 61.5376 68.5972 61.3342C67.9978 61.1295 67.2215 60.8873 66.8716 60.7953C66.5228 60.7033 66.2141 60.627 66.1862 60.627C66.1583 60.627 66.1039 60.7093 66.0651 60.8086C66.0264 60.9091 65.9912 61.0036 65.9888 61.0205ZM56.4878 62.5572C55.8884 62.8382 54.9075 63.222 54.3081 63.4121C53.7087 63.6011 52.2919 64.0297 51.1597 64.3639C50.0275 64.6982 48.4472 65.1729 47.648 65.4199C46.8487 65.6669 46.1827 65.8752 46.167 65.8825C46.1524 65.8885 46.2336 66.1283 46.3486 66.4129C46.5496 66.9105 46.5799 66.9311 47.0728 66.9275C47.4857 66.9251 47.6601 66.9953 47.9507 67.2871C48.1505 67.4869 48.314 67.7727 48.3128 67.9229C48.3116 68.073 48.2026 68.4266 48.0706 68.71L47.8296 69.2246L48.4351 70.0723C49.7029 69.003 50.9901 67.8999 52.1139 66.9311C53.2376 65.9612 54.5455 64.852 55.0201 64.4657C55.4948 64.0806 56.3728 63.486 56.9722 63.1445C57.5716 62.8043 58.4301 62.3162 58.8794 62.0607C59.4449 61.7398 59.6786 61.54 59.6362 61.4141C59.6035 61.3148 59.5079 61.2349 59.4243 61.2373C59.342 61.2397 58.8915 61.4226 58.4253 61.6442C57.9591 61.867 57.0872 62.2775 56.4878 62.5572ZM65.8835 62.3635C66.1111 62.5524 66.6233 62.9278 67.023 63.199C67.4226 63.4703 68.0462 63.9425 68.4083 64.2489C68.7715 64.5541 69.7246 65.5386 70.5274 66.4359C71.3315 67.3332 72.7422 68.8856 73.6649 69.887C74.5865 70.8885 75.4039 71.7192 75.4814 71.7325C75.5576 71.747 75.7514 71.5836 75.91 71.3692C76.1946 70.9878 76.1958 70.9732 75.9875 70.5567C75.8555 70.2927 75.8035 70.0081 75.8495 69.7998C75.8906 69.617 76.0735 69.3215 76.2563 69.1435C76.5458 68.8638 76.6681 68.8275 77.1779 68.8711C77.6937 68.9159 77.7942 68.8844 77.9989 68.6192C78.1273 68.4533 78.2314 68.2753 78.229 68.2256C78.2266 68.176 77.4479 67.7606 76.4985 67.3029C75.5504 66.8452 74.2825 66.2397 73.6831 65.9575C73.0837 65.6754 72.1307 65.2395 71.564 64.9888C70.9985 64.7381 70.3167 64.41 70.0503 64.2598C69.7839 64.1096 69.1845 63.7294 68.7183 63.4158C68.2521 63.1009 67.4347 62.5923 66.9019 62.2836C66.369 61.9748 65.8677 61.7217 65.7878 61.7205C65.7079 61.718 65.6037 61.7846 65.5565 61.8682C65.5032 61.9614 65.6292 62.1516 65.8835 62.3635ZM57.396 64.3107C56.9564 64.7224 54.8591 66.2094 52.6431 67.6807C49.2597 69.9282 48.693 70.346 48.7862 70.5264C48.8468 70.6427 48.9957 70.8352 49.1192 70.9527C49.3045 71.1282 49.4074 71.144 49.7066 71.0374C49.9064 70.9672 50.2067 70.9381 50.3726 70.9745C50.5397 71.0108 50.7988 71.1488 50.9478 71.2832C51.1815 71.4915 51.2166 71.6296 51.1899 72.2568C51.1609 72.9531 51.1778 73.0004 51.5532 73.2861C51.925 73.5683 51.9577 73.5731 52.1272 73.3721C52.2265 73.2559 53.1444 71.9069 54.1664 70.375C55.1885 68.8432 56.3473 67.0994 56.7409 66.5C57.1332 65.9006 57.9458 64.8919 58.5464 64.2574C59.1458 63.6228 59.7888 62.9423 59.9741 62.7437C60.2587 62.441 60.2853 62.3586 60.1436 62.2327C60.0056 62.108 59.8142 62.2157 59.0792 62.8273C58.5864 63.2378 57.8295 63.9062 57.396 64.3107ZM65.2344 63.4121C65.5444 63.8457 66.1329 64.7175 66.541 65.3496C66.9491 65.983 68.223 68.3806 69.3722 70.6778C70.5201 72.9761 71.484 74.8688 71.5119 74.8858C71.541 74.9027 71.742 74.8083 71.9575 74.6763C72.3232 74.4523 72.3487 74.3929 72.3196 73.8589C72.2954 73.4339 72.3499 73.2014 72.5242 72.9786C72.7216 72.7279 72.8609 72.6782 73.344 72.6855C73.6637 72.6904 74.0343 72.7315 74.1675 72.7763C74.3419 72.8345 74.5211 72.7557 74.8032 72.4942C75.1338 72.1902 75.1701 72.1067 75.0285 71.9795C74.9364 71.896 73.3695 70.5155 71.547 68.911C69.7246 67.3053 67.9614 65.6911 67.6284 65.323C67.2954 64.9537 66.6149 64.1569 66.1147 63.5502C65.6158 62.9435 65.1145 62.4458 65.0007 62.4446C64.8881 62.4446 64.767 62.4846 64.7319 62.5342C64.698 62.5839 64.9244 62.9798 65.2344 63.4121ZM59.1737 65.2891C58.9327 65.7553 58.3442 66.6272 57.8671 67.2266C57.3887 67.826 56.3897 69.0248 55.6462 69.8907C54.9027 70.7565 53.848 71.9965 53.3018 72.6455L52.3101 73.8262C53.0076 74.3239 53.2122 74.3941 53.3091 74.3263C53.3926 74.2682 53.6518 74.158 53.8843 74.0805C54.1846 73.9812 54.405 73.9764 54.6411 74.0648C54.8252 74.1338 55.0565 74.3118 55.1582 74.462C55.2587 74.6121 55.3713 74.9524 55.4064 75.2188C55.4549 75.5736 55.5517 75.7443 55.7685 75.8545C55.9308 75.9381 56.133 76.0083 56.2153 76.0107C56.2989 76.0132 56.4321 75.8642 56.5108 75.6777C56.5895 75.4925 57.0146 74.1955 57.4541 72.7969C57.8949 71.3983 58.3296 70.036 58.4205 69.7696C58.5113 69.5032 58.7329 68.7948 58.9133 68.1953C59.0937 67.5959 59.3771 66.7786 59.5442 66.3789C59.7101 65.9793 60.14 65.0663 60.4984 64.3506C60.8569 63.635 61.1499 62.9944 61.1499 62.9278C61.1499 62.8612 61.047 62.8067 60.9223 62.8067C60.7733 62.8067 60.5033 63.0949 60.1521 63.6241C59.8554 64.0733 59.4146 64.8229 59.1737 65.2891ZM64.4909 65.168C64.9644 66.632 65.2441 67.7691 65.456 69.1036C65.6195 70.1365 65.8592 71.5799 65.9876 72.3125C66.1147 73.0452 66.346 74.3372 66.501 75.1837C66.7783 76.7082 66.7844 76.7216 67.0835 76.6562C67.2506 76.6186 67.4686 76.569 67.5679 76.5436C67.6744 76.5169 67.7871 76.2832 67.8379 75.9793C67.8876 75.6947 68.051 75.3387 68.2012 75.1897C68.3526 75.0396 68.5996 74.8894 68.7485 74.8567C68.8987 74.8228 69.1578 74.8495 69.3237 74.9161C69.4908 74.9827 69.75 75.1679 69.8989 75.3266L70.1714 75.616L71.2092 75.0977C68.8018 71.4382 67.8973 70.0481 67.6454 69.6485C67.3947 69.2489 66.9297 68.5138 66.6137 68.0137C66.2964 67.5148 65.8023 66.5061 65.5129 65.7735C65.2247 65.0409 64.8203 64.0988 64.6132 63.6798C64.4073 63.2608 64.1724 62.9205 64.0925 62.9229C64.0126 62.9254 63.9193 62.9689 63.8866 63.0186C63.8527 63.0682 64.1252 64.0358 64.4909 65.168ZM61.2201 65.0469C61.0421 65.7795 60.8121 66.6793 60.7091 67.045C60.605 67.4119 60.3555 68.0924 60.1533 68.5586C59.9523 69.0248 59.5212 69.9645 59.1967 70.6475C58.8721 71.3305 58.6069 71.9166 58.6069 71.9493C58.6069 71.9832 58.3696 72.5414 58.0802 73.1905C57.7908 73.8395 57.3815 74.7659 57.172 75.2491C56.9625 75.7322 56.7905 76.1548 56.7905 76.1875C56.7905 76.2214 56.9952 76.3086 57.2446 76.3813C57.6721 76.5072 57.7254 76.4915 58.1226 76.1306C58.3563 75.9187 58.6832 75.7141 58.8491 75.6765C59.0162 75.639 59.2887 75.685 59.4546 75.7795C59.6217 75.8739 59.8942 76.2081 60.0601 76.523C60.3386 77.0497 60.3991 77.0957 60.8169 77.0957H61.271C61.3776 74.6085 61.4563 72.2253 61.5132 70.1934C61.5967 67.1987 61.6633 66.2833 61.8656 65.3496C62.0036 64.7175 62.1162 63.968 62.1174 63.6846C62.1187 63.3044 62.0714 63.17 61.9346 63.17C61.8341 63.17 61.7045 63.2923 61.6464 63.4424C61.5895 63.5926 61.3969 64.3143 61.2201 65.0469ZM62.8137 66.0568C62.8234 67.5657 62.781 69.0733 62.7205 69.4063C62.66 69.7393 62.5522 70.4477 62.4807 70.9805C62.4105 71.5133 62.2724 72.522 62.1744 73.2207C62.0775 73.9207 61.9431 75.065 61.8753 75.7637C61.8087 76.4636 61.7542 77.0764 61.7554 77.126C61.7554 77.1757 61.9879 77.2193 62.27 77.2205C62.7556 77.2241 62.7992 77.1963 63.0269 76.7216C63.1698 76.4249 63.418 76.1452 63.6323 76.0398C63.8479 75.9345 64.1191 75.8945 64.2983 75.9429C64.4655 75.9865 64.7524 76.1694 64.9365 76.3474C65.1218 76.5266 65.2719 76.7397 65.2695 76.8233C65.2683 76.9141 65.4245 76.9746 65.6606 76.9734C65.8774 76.9722 66.1365 76.9214 66.2358 76.8608C66.3969 76.7627 66.3945 76.6755 66.2128 76.1052C66.1002 75.7516 65.8362 74.8616 65.6255 74.1289C65.416 73.3963 65.1739 72.5523 65.0879 72.252C65.0019 71.9529 64.7815 71.2166 64.5987 70.6172C64.4158 70.0178 64.1664 69.1459 64.044 68.6797C63.9217 68.2135 63.7667 67.4506 63.7001 66.9844C63.6335 66.5182 63.5233 65.5107 63.4531 64.7442C63.3841 63.9789 63.2848 63.3189 63.2327 63.2777C63.1819 63.2366 63.062 63.2281 62.9687 63.2571C62.8271 63.302 62.8004 63.7875 62.8137 66.0568ZM21.855 40.8294C22.4544 40.8572 23.4898 40.9856 24.1558 41.1152C24.8218 41.2459 25.776 41.5002 26.2749 41.6807C26.775 41.8611 27.5646 42.2014 28.0308 42.4351C28.497 42.6688 29.2877 43.1398 29.7866 43.4789C30.2855 43.8192 31.2155 44.616 31.8513 45.2481C32.487 45.8814 33.2596 46.7799 33.5672 47.2461C33.8748 47.7123 34.3446 48.5297 34.611 49.0625C34.8786 49.5953 35.2371 50.4406 35.4066 50.9395C35.5773 51.4396 35.8268 52.4059 35.9612 53.0889C36.1198 53.8954 36.2046 54.8181 36.2046 55.7227C36.2046 56.62 36.1174 57.5791 35.9576 58.417C35.8207 59.1327 35.5689 60.1547 35.3957 60.6875C35.2225 61.2203 34.898 62.0244 34.674 62.4737C34.4499 62.9229 34.0842 63.5768 33.8614 63.9268C33.6386 64.2768 33.193 64.8895 32.8733 65.2891C32.5524 65.6887 32.0123 66.2796 31.6745 66.6005C31.3354 66.9227 30.6767 67.4748 30.2105 67.8296C29.7442 68.1832 28.9002 68.7209 28.3335 69.0248C27.768 69.3288 26.7326 69.7659 26.0327 69.9972C25.334 70.2273 24.2708 70.4816 23.6714 70.5615C22.9969 70.6523 21.8913 70.6838 20.7651 70.6427C19.3423 70.5918 18.7126 70.5119 17.8589 70.2733C17.2595 70.1062 16.361 69.795 15.8608 69.5831C15.3619 69.37 14.708 69.0563 14.4077 68.8868C14.1086 68.7161 13.4547 68.291 12.9546 67.9423C12.4557 67.5947 11.7437 67.0183 11.3743 66.6623C11.0038 66.3063 10.4007 65.6342 10.035 65.168C9.66811 64.7018 9.17405 63.9934 8.9355 63.5938C8.69694 63.1942 8.37968 62.6226 8.23073 62.3223C8.08178 62.0232 7.83354 61.4238 7.67975 60.9903C7.52596 60.558 7.27651 59.7406 7.12635 59.1739C6.88659 58.2753 6.85147 57.8455 6.84905 55.7832C6.84663 53.7307 6.88175 53.279 7.11788 52.3321C7.26803 51.7327 7.53444 50.8608 7.71003 50.3946C7.88561 49.9284 8.238 49.1521 8.4935 48.669C8.74901 48.1858 9.15952 47.5053 9.40655 47.1553C9.65237 46.8053 10.1561 46.1708 10.5267 45.7446C10.896 45.3183 11.608 44.6438 12.1069 44.2442C12.6071 43.8458 13.3155 43.3275 13.6812 43.0926C14.0481 42.8577 14.7831 42.4641 15.3159 42.2183C15.8487 41.9725 16.6395 41.6601 17.0718 41.5244C17.5053 41.3876 18.1858 41.2145 18.5855 41.1382C18.9851 41.0619 19.639 40.9505 20.0386 40.8899C20.4382 40.8306 21.2556 40.8027 21.855 40.8294ZM30.759 71.2663C30.8958 71.3087 31.0811 71.5073 31.1707 71.7071C31.2603 71.9069 31.3742 72.2072 31.4226 72.3731C31.4723 72.5402 31.884 73.4121 32.3381 74.3106C32.7934 75.2103 33.5817 76.5726 34.0915 77.3379C34.6013 78.1045 35.4623 79.296 36.0048 79.9863C36.5473 80.6777 37.8369 82.0679 38.8687 83.0766C39.9016 84.0853 41.4346 85.427 42.275 86.0591C43.1166 86.69 44.3966 87.5607 45.1207 87.9918C45.8449 88.4241 47.0098 89.0574 47.7085 89.4013C48.4084 89.744 49.3348 90.1642 49.7671 90.3337C50.2006 90.5045 51.127 90.8338 51.8257 91.0663C52.5256 91.3 53.6699 91.627 54.3687 91.7929C55.0686 91.9588 56.0761 92.1816 56.6089 92.287C57.1417 92.3923 58.4229 92.5594 59.4546 92.6587C60.4875 92.7568 62.0048 92.8779 62.8283 92.9287C63.969 92.9978 64.3456 93.0632 64.4158 93.2012C64.4667 93.3017 64.5466 93.8188 64.5926 94.3516C64.6398 94.8844 64.7537 95.7563 64.8469 96.2891C64.9389 96.8219 65.2029 97.8306 65.4306 98.5293C65.6594 99.2293 66.0191 100.182 66.231 100.648C66.4417 101.115 66.8546 101.905 67.1489 102.404C67.4432 102.904 67.6853 103.435 67.6866 103.585C67.689 103.802 67.6078 103.868 67.2954 103.912C67.0799 103.941 66.0578 103.994 65.0249 104.029C63.9932 104.065 62.1126 104.042 60.8472 103.977C59.5817 103.914 57.7835 103.755 56.8511 103.624C55.9187 103.492 54.6387 103.276 54.0054 103.145C53.3733 103.013 52.2556 102.742 51.523 102.544C50.7903 102.344 49.7005 102.017 49.1011 101.817C48.5017 101.616 47.6576 101.318 47.2241 101.155C46.7918 100.991 45.6741 100.52 44.7417 100.107C43.8093 99.6943 42.338 98.9725 41.4722 98.5027C40.6064 98.0316 39.2719 97.2409 38.5054 96.7432C37.7401 96.2455 36.7314 95.5601 36.2651 95.2211C35.7989 94.8808 35.0094 94.2765 34.5093 93.8769C34.0104 93.4773 32.975 92.5982 32.2085 91.9225C31.4432 91.2468 30.38 90.2344 29.8472 89.6725C29.3144 89.1095 28.4655 88.1613 27.9605 87.5655C27.4556 86.9685 26.6624 85.9634 26.1986 85.3301C25.7348 84.698 25.0507 83.7171 24.6789 83.1504C24.3059 82.5849 23.5891 81.3861 23.0841 80.4864C22.5791 79.5879 21.7496 77.8986 21.2386 76.7325C20.7288 75.5675 20.2771 74.4402 20.236 74.227C20.1682 73.8855 20.1948 73.8347 20.4624 73.7802C20.6295 73.7475 21.419 73.6942 22.2183 73.6627C23.0175 73.6313 24.0528 73.5162 24.519 73.4072C24.9853 73.297 25.8571 73.0657 26.4565 72.8914C27.056 72.7158 27.8467 72.4409 28.2124 72.2798C28.5793 72.1176 29.2465 71.8064 29.6946 71.586C30.2238 71.328 30.598 71.2154 30.759 71.2663ZM82.7651 78.3188C83.3646 78.3115 84.3188 78.366 84.8843 78.4399C85.451 78.5138 86.3495 78.7014 86.8823 78.8565C87.4151 79.0115 88.178 79.2682 88.5776 79.4256C88.9772 79.5842 89.6312 79.8979 90.0308 80.1231C90.4304 80.3483 90.9208 80.645 91.1206 80.7818C91.3192 80.9187 91.8641 81.3377 92.3315 81.7131C92.7978 82.0872 93.4541 82.6866 93.7907 83.0451C94.1274 83.4023 94.6263 83.9957 94.8987 84.3614C95.1724 84.7283 95.5708 85.3277 95.7851 85.6934C95.9983 86.0603 96.393 86.8777 96.6619 87.5098C96.9295 88.1431 97.2855 89.2051 97.4526 89.8711C97.7166 90.9247 97.7565 91.3509 97.7578 93.1407C97.759 94.9728 97.7226 95.3458 97.432 96.5313C97.2516 97.2639 96.8835 98.3816 96.6134 99.0137C96.3434 99.647 95.767 100.709 95.3335 101.375C94.8321 102.144 94.1189 103.009 93.3778 103.744C92.736 104.381 91.7745 105.194 91.2417 105.553C90.7089 105.911 89.7825 106.434 89.1831 106.714C88.5837 106.994 87.5762 107.363 86.9429 107.534C86.3108 107.705 85.3299 107.901 84.7632 107.971C84.1977 108.04 83.3258 108.096 82.8257 108.093C82.3268 108.092 81.4004 108.017 80.7671 107.927C80.135 107.838 79.1808 107.643 78.6479 107.495C78.1151 107.347 77.1621 106.983 76.5288 106.685C75.8967 106.387 74.9158 105.834 74.3491 105.456C73.7836 105.078 72.8294 104.274 72.23 103.67C71.6306 103.064 70.8386 102.11 70.4693 101.548C70.0999 100.988 69.6265 100.2 69.4182 99.8008C69.2099 99.4012 68.9035 98.6928 68.7389 98.2266C68.5742 97.7604 68.3174 96.8619 68.1673 96.2286C67.9469 95.2889 67.8973 94.7234 67.8973 93.1407C67.8973 91.558 67.9469 90.9925 68.1673 90.0528C68.3174 89.4207 68.5717 88.5209 68.7352 88.0547C68.8987 87.5885 69.3371 86.6621 69.7088 85.9961C70.0818 85.3301 70.6897 84.4037 71.0602 83.9375C71.432 83.4713 72.0641 82.7738 72.4673 82.3875C72.8694 82.0013 73.717 81.3401 74.3491 80.9187C74.9824 80.4973 75.9899 79.9342 76.5894 79.6678C77.1888 79.4014 78.0885 79.0635 78.5874 78.917C79.0875 78.7693 79.986 78.5779 80.5854 78.4907C81.1849 78.4036 82.1657 78.3261 82.7651 78.3188Z" fill="white"/>
</svg>
