<svg version="1.2" xmlns="http://www.w3.org/2000/svg" viewBox="0 0 1024 1024" width="1024" height="1024">
	<style>
		.s0 { opacity: .98;fill: #f87c0c } 
	</style>
	<path id="Path 0" fill-rule="evenodd" class="s0" d="m678 58.14c5.96-0.07 14.39 0.58 19.5 1.51 4.95 0.9 13.27 2.9 18.5 4.45 5.23 1.55 13.77 4.99 19 7.64 5.23 2.66 12.88 7.32 17 10.37 4.13 3.04 10.37 8.2 13.88 11.46 3.51 3.26 9.42 9.98 13.12 14.93 3.71 4.95 8.79 12.83 11.29 17.5 2.51 4.68 6.13 13.22 8.05 19 1.92 5.78 4.21 14.55 5.07 19.5 0.9 5.11 1.58 14.61 1.58 22 0 7.15-0.65 17.05-1.45 22-0.79 4.95-2.87 13.05-4.62 18-1.74 4.95-4.6 11.93-6.35 15.5-1.75 3.57-4.9 9.2-7.01 12.5-2.1 3.3-5.68 8.25-7.94 10.99-2.27 2.74-5.25 6.28-6.62 7.85-1.38 1.58-6.55 6.13-11.5 10.13-4.95 4-12.83 9.45-17.5 12.11-4.67 2.66-12.1 6.25-16.5 7.98-4.4 1.72-12.27 4.21-17.5 5.52-8.44 2.12-11.72 2.39-29.5 2.39-18.74-0.01-20.6-0.18-29.5-2.72-5.23-1.49-11.98-3.66-15-4.82-3.02-1.15-9.1-3.91-13.5-6.11-4.4-2.21-11.6-6.56-16-9.67-4.4-3.11-11.86-9.47-16.59-14.15-5.04-4.98-11.33-12.64-15.19-18.5-3.62-5.5-8.15-13.38-10.06-17.5-1.91-4.12-4.65-11.1-6.09-15.5-1.44-4.4-3.28-12.05-4.09-17-0.81-4.95-1.47-14.63-1.47-21.5 0-6.87 0.64-16.32 1.41-21 0.78-4.68 2.58-11.99 4-16.25 1.42-4.26 3.85-10.56 5.41-14 1.55-3.44 5.32-10.08 8.36-14.75 3.04-4.67 7.92-11.2 10.85-14.5 2.92-3.3 7.6-8.14 10.39-10.75 2.79-2.61 8.45-7.17 12.57-10.13 4.12-2.95 10.65-7.03 14.5-9.06 3.85-2.02 9.7-4.73 13-6.02 3.3-1.29 8.25-3.05 11-3.91 2.75-0.86 8.38-2.23 12.5-3.04 4.12-0.81 8.63-1.66 10-1.9 1.37-0.23 7.23-0.48 13-0.55zm143 189.83c0.27-0.03 1.44 0.75 2.59 1.74 1.15 0.98 3.9 4.04 6.1 6.79 2.21 2.75 7.84 10.62 12.51 17.5 4.67 6.87 10.45 15.87 12.84 20 2.39 4.12 7.36 13.57 11.04 21 3.68 7.43 8.27 17.32 10.2 22 1.92 4.68 4.92 12.55 6.67 17.5 1.74 4.95 4.75 14.4 6.68 21 1.94 6.6 4.62 17.18 5.98 23.5 1.35 6.32 3.35 16.68 4.44 23 1.09 6.32 2.75 18.48 3.69 27 1.01 9.15 1.72 23.49 1.73 35 0.02 11.83-0.65 25.59-1.68 35-0.94 8.52-2.63 20.9-3.76 27.5-1.13 6.6-2.78 15.15-3.67 19-0.89 3.85-3.12 12.17-4.95 18.5-1.83 6.33-4.66 15.33-6.28 20-1.63 4.67-4.07 11.2-5.42 14.5-1.36 3.3-4.03 9.6-5.95 14-1.91 4.4-6.19 13.4-9.5 20-3.31 6.6-8.85 16.73-12.32 22.5-3.46 5.77-8.79 14.1-11.82 18.5-3.04 4.4-7.68 10.81-10.32 14.25-2.64 3.44-5.59 6.26-6.55 6.27-1.21 0.02-2.9-2.39-5.46-7.75-2.04-4.27-5.86-11.17-8.5-15.32-2.63-4.16-7.12-10.46-9.96-14-2.85-3.55-7.8-8.98-11-12.07-3.21-3.09-9.43-8.37-13.83-11.72-4.4-3.35-8.79-6.79-9.75-7.63-0.96-0.84-1.74-2.54-1.73-3.78 0.01-1.24 2.45-6.3 5.41-11.25 2.96-4.95 7.37-13.05 9.79-18 2.42-4.95 6.47-14.17 9-20.5 2.53-6.33 5.49-14.2 6.58-17.5 1.09-3.3 2.76-8.7 3.71-12 0.95-3.3 2.79-10.73 4.1-16.5 1.31-5.77 3.34-17.7 4.52-26.5 1.59-11.8 2.15-21.25 2.17-36q0.01-20-1.69-32.5c-0.93-6.88-2.85-18.13-4.26-25-1.4-6.88-3.84-17-5.42-22.5-1.58-5.5-4.19-13.82-5.81-18.5-1.62-4.68-4.87-13-7.23-18.5-2.36-5.5-6.28-13.82-8.72-18.5-2.44-4.68-7.27-13-10.72-18.5-3.46-5.5-6.56-10.68-6.89-11.5-0.34-0.82-0.04-2.22 0.67-3.1 0.7-0.89 5.54-4.75 10.77-8.6 5.23-3.84 12.65-9.91 16.5-13.48 3.85-3.58 10.42-10.74 14.61-15.91 4.18-5.18 10.03-13.46 13-18.41 2.96-4.95 5.84-9.33 6.39-9.73 0.55-0.41 1.23-0.77 1.5-0.8zm-285.75-129.78c0.41-0.1 1.42 0.03 2.25 0.31 0.83 0.27 1.49 1.51 1.48 2.75-0.02 1.24-1.55 6.3-3.42 11.25-1.86 4.95-4.35 13.05-5.54 18-1.19 4.95-2.56 14.62-3.05 21.5-0.49 6.87-0.52 17.45-0.07 23.5 0.45 6.05 0.66 11.56 0.46 12.25-0.2 0.69-2.27 1.46-4.61 1.71-2.34 0.26-8.52 0.73-13.75 1.06-5.23 0.33-14.23 1.27-20 2.09-5.77 0.82-16.57 2.84-24 4.48-7.43 1.65-18 4.37-23.5 6.05-5.5 1.68-14.73 4.98-20.5 7.33-5.77 2.35-15.68 6.86-22 10.02-6.32 3.16-15.55 8.23-20.5 11.27-4.95 3.05-12.37 7.79-16.5 10.54-4.12 2.75-12.9 9.29-19.5 14.54-6.6 5.25-16.97 14.52-23.04 20.6-6.06 6.08-14.4 15.11-18.52 20.06-4.13 4.95-10.63 13.83-14.47 19.73-5.43 8.36-7.47 10.74-9.22 10.75-1.24 0.01-4.61-1.96-7.5-4.38-2.89-2.42-8.85-6.63-13.25-9.36-4.4-2.72-10.47-6.2-13.5-7.73-3.02-1.53-9.32-4.32-14-6.21-4.68-1.88-13.9-4.77-20.5-6.41-6.6-1.64-12.34-3.18-12.75-3.43-0.41-0.26-0.75-1.14-0.75-1.96 0-0.82 1.44-3.86 3.21-6.75 1.76-2.89 5.21-8.18 7.67-11.75 2.46-3.57 6.5-9.2 8.99-12.5 2.48-3.3 8.82-11.16 14.07-17.46 5.26-6.31 15.41-17.34 22.56-24.51 7.15-7.17 18.18-17.34 24.5-22.59 6.32-5.26 15.32-12.51 20-16.12 4.68-3.6 12.77-9.47 18-13.02 5.23-3.56 15.57-9.98 23-14.26 7.43-4.28 18.9-10.38 25.5-13.55 6.6-3.17 17.18-7.78 23.5-10.24 6.32-2.47 14.2-5.4 17.5-6.53 3.3-1.12 8.7-2.8 12-3.74 3.3-0.93 10.05-2.73 15-4 4.95-1.26 13.5-3.21 19-4.32 5.5-1.11 16.3-2.93 24-4.03 7.7-1.11 21.65-2.51 31-3.11 9.35-0.6 19.92-1.21 23.5-1.36 3.58-0.15 6.84-0.36 7.25-0.47zm-15.75 203.33c10.38 0.21 20.04 1.06 27.5 2.4 6.33 1.13 14.42 2.9 18 3.94 3.58 1.03 9.88 3.09 14 4.57 4.13 1.48 11.77 4.85 17 7.48 5.23 2.63 12.88 6.93 17 9.56 4.13 2.63 11.55 8.02 16.5 11.97 4.95 3.96 12.24 10.76 16.2 15.13 3.95 4.36 9.95 11.75 13.32 16.43 3.38 4.67 8.1 12.1 10.51 16.5 2.41 4.4 6.26 12.5 8.56 18 2.3 5.5 5.29 14.05 6.64 19 1.35 4.95 3.31 14.85 4.36 22 1.04 7.15 1.9 16.82 1.9 21.5-0.01 4.67-0.93 14.8-2.06 22.5-1.13 7.7-3.15 18.05-4.48 23-1.33 4.95-4.19 13.5-6.35 19-2.16 5.5-5.9 13.6-8.31 18-2.4 4.4-5.25 9.35-6.31 11-1.07 1.65-4.42 6.37-7.45 10.5-3.03 4.12-9.79 11.94-15.02 17.36-5.23 5.43-13.56 12.94-18.51 16.7-4.95 3.76-12.83 9.11-17.5 11.89-4.67 2.78-13.45 7.15-19.5 9.7-6.05 2.56-13.92 5.5-17.5 6.54-3.58 1.04-10.77 2.84-16 4-7.39 1.65-14.05 2.22-30 2.57-18.81 0.41-21.61 0.24-34-2.08-7.43-1.39-18.45-4.18-24.5-6.21-6.05-2.03-15.05-5.73-20-8.22-4.95-2.49-11.93-6.35-15.5-8.57-3.57-2.23-10.1-6.82-14.5-10.22-4.4-3.39-10.66-8.59-13.91-11.56-3.25-2.97-9.1-9.23-13-13.9-3.9-4.67-9.48-12.1-12.42-16.5-2.93-4.4-7.72-12.95-10.64-19-2.92-6.05-6.46-14.6-7.87-19-1.42-4.4-3.46-11.6-4.54-16-1.07-4.4-2.53-12.27-3.22-17.5-0.7-5.23-1.22-15.58-1.17-23 0.05-7.43 0.78-18.23 1.62-24 0.84-5.77 3.17-15.9 5.18-22.5 2-6.6 4.69-14.48 5.98-17.5 1.28-3.02 4.23-9.1 6.54-13.5 2.31-4.4 6.11-10.93 8.45-14.5 2.33-3.58 6.2-8.98 8.59-12 2.39-3.02 8.18-9.49 12.87-14.36 4.7-4.87 12.81-12.05 18.04-15.95 5.23-3.91 12.88-9.1 17-11.54 4.13-2.44 11.33-6.21 16-8.36 4.68-2.16 13.23-5.51 19-7.44 5.77-1.93 15.23-4.36 21-5.39 5.77-1.03 11.85-2.08 13.5-2.33 1.65-0.25 10.2-0.3 19-0.11zm-4.16 29.5c-1.01 1.91-3.08 4.04-4.59 4.73-1.51 0.69-4.1 1.02-5.75 0.75-1.65-0.27-4.03-1.74-5.29-3.25-1.26-1.51-2.5-3.36-2.75-4.1-0.37-1.07-1.3-1.12-4.71-0.25-2.34 0.61-4.06 1.44-3.83 1.85 0.23 0.41 1.42 4.35 2.65 8.75 1.22 4.4 3.1 11.15 4.16 15 1.06 3.85 2.51 9.25 3.23 12 0.72 2.75 2.89 10.4 4.82 17 1.94 6.6 4.22 15.15 5.08 19 0.85 3.85 2.03 12.17 2.61 18.5 0.58 6.32 1.5 13.86 2.04 16.75 0.67 3.56 1.47 5.25 2.49 5.25 1.29 0 1.5-3.11 1.5-22 0-16.68 0.46-24.96 1.9-34.25 1.05-6.74 2.88-20.13 4.06-29.75 1.18-9.63 2.46-20.28 2.85-23.69 0.63-5.65 0.52-6.24-1.31-6.74-1.1-0.3-2.45-0.52-3-0.49-0.55 0.04-1.75 0.37-2.66 0.76-0.92 0.38-2.49 2.26-3.5 4.18zm14.31 12.68c-0.42 9.24-1.15 29.17-1.63 44.3-0.65 20.43-1.3 29.04-2.54 33.5-0.92 3.3-1.74 9.55-1.83 13.9-0.08 4.48 0.28 8.07 0.85 8.29 0.55 0.22 1.56-0.86 2.24-2.4 0.68-1.53 1.89-5.72 2.7-9.29 0.8-3.57 2.13-9.43 2.96-13 0.82-3.57 2.38-8.98 3.45-12 1.08-3.02 2.63-7.07 3.46-9 0.82-1.93 4.02-8.79 7.09-15.25 3.08-6.46 5.6-11.98 5.6-12.25 0-0.27 1.19-3.09 2.65-6.25 1.45-3.16 5.05-11.04 8-17.5l5.35-11.75c-5.81-2.36-7.84-3.04-8.25-3.02-0.41 0.01-2.21 1.58-4 3.48-2.62 2.78-4.03 3.47-7.25 3.53-2.61 0.05-4.59-0.54-5.7-1.71-0.94-0.98-2.33-3.58-3.1-5.78-1.27-3.66-1.72-4.03-5.34-4.3l-3.94-0.3zm-53.83-8.15c0.1 1.35-0.5 3.8-1.33 5.45-0.82 1.65-2.51 3.5-3.75 4.11-1.23 0.61-3.6 0.85-5.25 0.54-1.65-0.32-4.23-1.72-5.75-3.11-2.72-2.52-2.78-2.52-6.27-0.79-1.94 0.96-3.51 1.98-3.51 2.25 0.01 0.28 3.45 5.9 7.63 12.5 4.19 6.6 8.81 13.97 10.26 16.38 1.45 2.4 5.71 9.15 9.47 15 3.75 5.84 8.79 14.22 11.2 18.62 2.41 4.4 5.25 10.48 6.31 13.5 1.07 3.03 3.61 9.33 5.67 14 2.06 4.68 4.13 9.06 4.62 9.75 0.48 0.69 1.55 1.03 2.37 0.75q1.5-0.5 0.93-2.75c-0.32-1.24-2.37-8.1-4.56-15.25-2.2-7.15-4.41-14.01-4.93-15.25-0.51-1.24-2.07-9.56-3.44-18.5-1.38-8.94-3.42-21.65-4.53-28.25-1.1-6.6-2.71-15.82-3.56-20.5-0.85-4.67-1.74-9.51-1.98-10.75-0.32-1.69-1.11-2.24-3.18-2.22-1.51 0.02-3.61 0.49-4.67 1.05-1.19 0.63-1.85 1.95-1.75 3.47zm85.9 27.45c-3.64 11.28-7.78 24.55-9.2 29.5-1.42 4.95-3.76 12.15-5.21 16-1.45 3.85-5.49 12.63-8.97 19.5-3.48 6.88-6.44 13.83-6.59 15.46q-0.26 2.97 1.24 3.26c0.88 0.18 2.37-1.26 3.59-3.46 1.14-2.07 5.5-9.61 9.68-16.76 6.3-10.8 11.83-18.03 32.66-42.75 13.79-16.36 25.07-29.97 25.07-30.25 0-0.27-1.83-1.74-4.08-3.25-2.69-1.81-4.3-2.38-4.75-1.65-0.36 0.61-1.68 1.62-2.92 2.25-1.23 0.63-3.82 1.15-5.75 1.15-2.04 0-4.18-0.73-5.14-1.75-0.9-0.96-2.03-2.76-2.5-4-0.47-1.24-0.86-3.37-0.86-4.75 0-1.78-0.86-2.93-3-4-1.65-0.82-3.22-1.5-3.49-1.5-0.27 0-1.09 1.46-1.83 3.25-0.73 1.79-4.31 12.48-7.95 23.75zm-121.01-14.12q-1.78 1.62-1.75 5.87c0.02 3.19-0.58 4.87-2.42 6.75-1.71 1.74-3.54 2.5-6 2.5-1.95 0-4.56-0.49-5.8-1.1-1.8-0.88-2.72-0.73-4.65 0.75-1.32 1.02-2.55 2.41-2.75 3.1-0.19 0.69 9.49 10.36 21.52 21.5 12.02 11.14 25.6 23.63 30.16 27.75 4.57 4.13 10.86 10.88 13.99 15 3.12 4.13 7.88 9.94 10.58 12.92 2.99 3.3 5.39 5.16 6.15 4.75 0.69-0.37 1.25-1.12 1.25-1.67 0-0.55-4.33-7.41-9.63-15.25-5.29-7.84-11.31-17.62-13.36-21.75-2.05-4.12-5.25-10.87-7.1-15-1.85-4.12-7.99-16.84-13.64-28.25-5.65-11.41-10.6-20.71-11.02-20.67-0.41 0.04-1.42 0.33-2.25 0.63-0.82 0.3-2.3 1.28-3.28 2.17zm143.83 39.62c-7.75 11.55-16.1 24.15-18.56 28-2.47 3.85-7.63 10.38-11.48 14.5-3.86 4.13-9.14 10.09-11.76 13.25-3.97 4.81-4.54 6-3.5 7.29 1.08 1.33 2.77 0.04 12.25-9.32 6.05-5.97 13.7-12.89 17-15.38 3.3-2.49 11.18-7.93 17.5-12.09 6.33-4.16 16.45-11.03 22.5-15.27 6.05-4.24 14.24-9.79 18.2-12.34 3.96-2.55 7.23-5.09 7.27-5.64 0.05-0.55-1.09-2.12-2.52-3.5-2.26-2.17-3.39-2.47-8.53-2.25-4.8 0.2-6.3-0.13-7.92-1.75-1.62-1.62-1.95-3.12-1.75-7.91 0.23-5.41 0.02-6.08-2.5-8-1.51-1.15-3.08-2.07-3.5-2.05-0.41 0.02-2.52 2.61-4.68 5.75-2.16 3.14-10.27 15.16-18.02 26.71zm-177.05-12.56c2.72 6.25 3.5 8.74 3.5 9.56 0 0.83-1.31 2.85-2.92 4.5-2.49 2.56-3.68 3-8 3-4.53 0-5.29 0.32-7.08 3-1.1 1.65-2.01 3.34-2.02 3.75-0.01 0.41 7.98 4.66 17.75 9.44 9.78 4.77 26.1 12.73 36.27 17.68 11.55 5.62 22.26 11.69 28.5 16.14 5.5 3.93 12.14 8.45 14.75 10.06 4.08 2.51 4.9 2.72 5.75 1.43 0.79-1.18-0.44-2.72-5.82-7.25-3.75-3.16-10.38-8.53-14.75-11.94-4.36-3.4-9.52-7.9-11.47-10-1.95-2.09-10.56-12.13-19.13-22.31-8.57-10.17-18.37-21.65-21.78-25.5-3.41-3.85-6.53-7.12-6.93-7.27-0.4-0.14-2.06 1.08-3.67 2.73zm209.56 24.56c-8.49 7.15-20.86 17.83-27.5 23.73-6.9 6.15-15.6 12.78-20.33 15.5-4.54 2.62-12.3 7.35-17.25 10.51-6.22 3.98-8.83 6.21-8.48 7.25 0.27 0.83 1.06 1.5 1.75 1.49 0.68 0 4.62-1.75 8.75-3.88 4.12-2.13 11.32-5.84 16-8.25 4.67-2.42 13.22-5.87 19-7.69 5.77-1.81 21.75-6.92 35.5-11.34 13.75-4.42 26.39-8.56 28.1-9.19l3.11-1.14c-3.02-7.03-3.63-7.48-6.71-7.49-1.93-0.01-4.97-0.91-6.75-2.01-1.79-1.1-3.75-3.01-4.35-4.25-0.86-1.78-0.65-3.35 1-7.5l2.1-5.25c-3.1-5.42-4.34-6.96-4.75-6.91-0.42 0.04-1.43 0.83-2.25 1.75-0.83 0.92-8.45 7.52-16.94 14.67zm-232.32 9.99c4.7 6.41 5.71 8.97 5.64 10.92-0.08 2.11-1.1 3.95-3.25 5.83-1.72 1.51-4.03 2.75-5.13 2.75-1.1 0-2.7 0.34-3.56 0.75-0.85 0.41-2.01 2.33-2.57 4.25-0.56 1.93-0.88 3.62-0.7 3.77 0.18 0.14 4.38 0.89 9.33 1.66 4.95 0.76 12.37 2.05 16.5 2.86 4.12 0.81 13.57 2.44 21 3.63 7.42 1.19 17.55 2.87 22.5 3.74 4.95 0.88 16.65 4.06 26 7.08 9.35 3.02 17.78 5.22 18.75 4.88 0.96-0.34 1.75-1.18 1.75-1.87 0.01-0.69-1.23-1.77-2.75-2.41-1.51-0.64-9.5-3.92-17.75-7.3-8.25-3.38-17.93-7.93-21.5-10.13-3.58-2.19-13.59-8.58-22.26-14.2-8.66-5.61-18.01-11.56-20.78-13.21-2.77-1.65-7.61-4.67-10.75-6.72-3.14-2.05-6-3.73-6.34-3.75-0.35-0.01-1.42 1.66-2.38 3.72zm210 38.09c-5.36 2.43-16.16 6.2-24 8.39-7.83 2.19-16.27 4.6-18.75 5.36-3.33 1.02-4.56 1.93-4.75 3.52-0.13 1.18 0.09 2.14 0.5 2.14 0.42 0 7.95-1.55 16.75-3.44 14.99-3.22 17.55-3.47 40.5-4.02 13.48-0.32 32.49-1.14 42.26-1.81l17.76-1.23c-0.04-4.65-0.38-6.52-0.78-7.16-0.41-0.64-1.86-1.43-3.24-1.74-1.37-0.32-3.75-1.82-5.29-3.34-2.08-2.06-2.77-3.7-2.75-6.51 0.03-2.79 0.83-4.57 3.14-7 2.84-2.97 3.02-3.56 2.17-7-0.51-2.06-1.34-3.72-1.84-3.7-0.51 0.03-12.4 5.25-26.43 11.59-14.02 6.34-29.88 13.52-35.25 15.95zm-220.51 3.36c0.69 0.24 2.61 1.67 4.26 3.16 2.24 2.03 3 3.61 3 6.21 0 2.06-0.81 4.38-2 5.72-1.1 1.23-3.46 2.85-5.25 3.6-2.72 1.14-3.24 1.89-3.23 4.61 0.01 1.79 0.34 3.76 0.75 4.38 0.54 0.84 3.07 0.79 9.73-0.2 4.95-0.73 15.53-2.02 23.5-2.87 7.98-0.84 19.45-2.24 25.5-3.09 6.05-0.85 15.73-1.65 21.5-1.76 5.78-0.11 15.9 0.08 22.5 0.43 6.6 0.36 12.57 0.47 13.25 0.25 0.69-0.21 1.26-1.18 1.27-2.14 0.01-1.27-1.14-1.96-4.25-2.54-2.35-0.44-9.67-1.23-16.27-1.75-6.6-0.52-14.92-1.64-18.5-2.49-3.57-0.85-13.7-3.74-22.5-6.41-8.8-2.68-20.5-6.08-26-7.57-5.5-1.49-13.48-3.78-17.75-5.1-4.26-1.31-8.14-2.39-8.63-2.39-0.48 0-1.16 2.14-1.51 4.75-0.45 3.4-0.28 4.88 0.63 5.2zm226.76 18.99c-12.42 1.83-17.15 2.05-33 1.53-11.5-0.38-19.06-0.24-20 0.38-0.82 0.54-1.22 1.58-0.88 2.32 0.43 0.94 4.36 1.57 13.5 2.16 7.08 0.45 17.61 1.66 23.38 2.7 5.78 1.03 12.53 2.52 15 3.31 2.48 0.8 8.1 2.41 12.5 3.59 4.4 1.18 10.48 2.79 13.5 3.58 3.03 0.78 9.78 2.58 15 3.98 5.23 1.41 11.75 3.22 14.5 4.02 2.75 0.81 5.79 1.47 6.75 1.48 1.01 0.01 1.96-0.94 2.24-2.24 0.27-1.24 0.49-3.26 0.5-4.5 0.01-1.34-1.4-3.45-3.49-5.25-2.76-2.37-3.5-3.74-3.5-6.5 0-1.92 0.45-4.4 1-5.5 0.55-1.1 2.35-2.67 4-3.5 2.67-1.33 3-2 3-6 0-4.03-0.23-4.49-2.25-4.39-1.23 0.06-12.37 1.6-24.75 3.41-12.37 1.81-29.02 4.25-37 5.42zm-137.75 10.1c-9.13 1.75-14.63 1.96-50.25 1.96-25.66 0-40.18 0.36-40.5 1-0.27 0.55-0.27 2.58 0 4.5 0.43 3.01 1.14 3.78 5 5.5 2.48 1.1 4.95 2.9 5.5 4 0.55 1.1 1 3.13 1 4.5 0 1.38-0.56 3.66-1.25 5.08-0.68 1.42-2.26 3.22-3.5 4-2.11 1.33-2.17 1.68-1 5.48 0.69 2.23 1.62 4.14 2.06 4.25 0.44 0.11 4.94-1.69 10-3.99 5.06-2.3 20.22-8.96 33.69-14.8 13.48-5.84 25.4-10.99 26.5-11.46 1.1-0.46 8.08-2.26 15.5-4.01 7.43-1.74 15.82-3.93 18.66-4.86 3.16-1.03 5-2.17 4.75-2.94-0.26-0.8-2.13-1.19-5.16-1.1-2.61 0.08-6.1 0.33-7.75 0.54-1.65 0.21-7.61 1.27-13.25 2.35zm81.71 3.21c-0.02 0.14 2.12 1.23 4.75 2.42 2.64 1.2 8.39 3.39 12.79 4.87 4.4 1.48 10.25 3.69 13 4.92 2.75 1.22 12.88 7.06 22.5 12.97 9.63 5.91 18.85 11.61 20.5 12.67 1.65 1.06 8.85 5.53 16 9.94 7.15 4.41 13.23 8 13.5 7.98 0.28-0.02 1.29-1.83 2.25-4.03 1.74-3.96 1.73-4.02-0.78-7.74-1.39-2.06-2.53-5.1-2.54-6.75 0-1.9 0.97-4 2.67-5.75 1.87-1.92 3.68-2.75 6.04-2.75 2.19 0 3.68-0.61 4.26-1.75 0.5-0.96 1.06-3.07 1.25-4.69l0.35-2.95c-13.17-2-23.07-3.49-30.5-4.6-7.42-1.11-19.8-2.88-27.5-3.94-7.7-1.05-17.15-2.65-21-3.54-3.85-0.9-11.05-3.01-16-4.69-4.95-1.69-11.36-3.69-14.25-4.45-2.88-0.76-5.43-1.39-5.66-1.39-0.23 0-0.68 0.68-1 1.5-0.32 0.83-0.61 1.61-0.63 1.75zm-78.46 12.69c-4.95 2.32-13.05 5.49-18 7.06-4.95 1.56-16.65 5.1-26 7.86-9.35 2.76-22.4 6.68-29 8.72-6.6 2.04-12.1 3.76-12.23 3.82-0.12 0.05 0.55 2.03 1.5 4.38 1.66 4.11 1.91 4.28 5.98 4.25 3.41-0.02 4.85 0.56 7.25 2.97 1.65 1.65 3 4.01 2.99 5.25-0.01 1.24-0.91 4.16-2 6.5l-1.99 4.25 5 7c10.47-8.83 21.1-17.94 30.38-25.94 9.28-8.01 20.08-17.17 24-20.36 3.92-3.18 11.17-8.09 16.12-10.91 4.95-2.81 12.04-6.84 15.75-8.95 4.67-2.65 6.6-4.3 6.25-5.34-0.27-0.82-1.06-1.48-1.75-1.46-0.68 0.02-4.4 1.53-8.25 3.36-3.85 1.84-11.05 5.23-16 7.54zm77.59-1.6c1.88 1.56 6.11 4.66 9.41 6.9 3.3 2.24 8.45 6.14 11.44 8.67 3 2.52 10.87 10.65 17.5 18.06 6.64 7.41 18.29 20.23 25.91 28.5 7.61 8.27 14.36 15.13 15 15.24 0.63 0.12 2.23-1.23 3.54-3 2.35-3.15 2.36-3.27 0.64-6.71-1.09-2.18-1.52-4.53-1.14-6.25 0.34-1.51 1.85-3.95 3.36-5.42 2.39-2.31 3.4-2.61 7.61-2.25 4.26 0.37 5.09 0.11 6.78-2.08 1.06-1.37 1.92-2.84 1.9-3.25-0.02-0.41-6.45-3.84-14.29-7.62-7.83-3.78-18.3-8.78-23.25-11.11-4.95-2.33-12.82-5.93-17.5-8-4.67-2.07-10.3-4.78-12.5-6.02-2.2-1.24-7.15-4.38-11-6.97-3.85-2.6-10.6-6.8-15-9.35-4.4-2.55-8.54-4.64-9.2-4.65-0.66-0.02-1.52 0.53-1.91 1.22-0.44 0.77 0.6 2.34 2.7 4.09zm-70.09 16.08c-3.63 3.4-20.95 15.68-39.25 27.83-27.94 18.56-32.62 22.01-31.85 23.5 0.5 0.96 1.73 2.55 2.75 3.52 1.53 1.45 2.38 1.58 4.85 0.7 1.65-0.58 4.13-0.82 5.5-0.52 1.38 0.3 3.52 1.44 4.75 2.55 1.93 1.72 2.22 2.86 2 8.04-0.24 5.75-0.1 6.14 3 8.5 3.07 2.33 3.34 2.37 4.74 0.71 0.82-0.96 8.4-12.1 16.84-24.75 8.44-12.65 18.01-27.05 21.26-32 3.24-4.95 9.95-13.28 14.91-18.52 4.95-5.24 10.26-10.86 11.79-12.5 2.35-2.5 2.57-3.18 1.4-4.22-1.14-1.03-2.72-0.14-8.79 4.91-4.07 3.39-10.32 8.91-13.9 12.25zm64.73-7.42c2.56 3.58 7.42 10.78 10.79 16 3.37 5.23 13.89 25.03 23.38 44 9.48 18.98 17.44 34.61 17.67 34.75 0.24 0.14 1.9-0.64 3.68-1.73 3.02-1.85 3.23-2.34 2.99-6.75-0.2-3.51 0.25-5.43 1.69-7.27 1.63-2.07 2.78-2.48 6.77-2.42 2.64 0.04 5.7 0.38 6.8 0.75 1.44 0.48 2.92-0.17 5.25-2.33 2.73-2.51 3.03-3.2 1.86-4.25-0.76-0.69-13.7-12.09-28.75-25.34-15.05-13.26-29.61-26.59-32.36-29.63-2.75-3.05-8.37-9.63-12.5-14.64-4.12-5.01-8.26-9.12-9.2-9.13-0.93 0-1.93 0.33-2.22 0.74-0.28 0.41 1.59 3.68 4.15 7.25zm-50.05 15.5c-1.99 3.85-6.85 11.05-10.79 16-3.95 4.95-12.2 14.85-18.34 22-6.14 7.15-14.85 17.39-19.36 22.75l-8.19 9.75c5.76 4.11 7.45 4.69 8.25 4.13 0.69-0.48 2.83-1.39 4.75-2.03 2.48-0.82 4.3-0.86 6.25-0.13 1.52 0.57 3.43 2.04 4.27 3.28 0.83 1.24 1.76 4.05 2.05 6.25 0.4 2.93 1.2 4.34 2.99 5.25 1.34 0.69 3.01 1.27 3.69 1.29 0.69 0.02 1.79-1.21 2.44-2.75 0.65-1.53 4.16-12.24 7.79-23.79 3.64-11.55 7.23-22.8 7.98-25 0.75-2.2 2.58-8.05 4.07-13 1.49-4.95 3.83-11.7 5.21-15 1.37-3.3 4.92-10.84 7.88-16.75 2.96-5.91 5.38-11.2 5.38-11.75 0-0.55-0.85-1-1.88-1-1.23 0-3.46 2.38-6.36 6.75-2.45 3.71-6.09 9.9-8.08 13.75zm43.91-1c3.91 12.09 6.22 21.48 7.97 32.5 1.35 8.53 3.33 20.45 4.39 26.5 1.05 6.05 2.96 16.72 4.24 23.71 2.29 12.59 2.34 12.7 4.81 12.16 1.38-0.31 3.18-0.72 4-0.93 0.88-0.22 1.81-2.15 2.23-4.66 0.41-2.35 1.76-5.29 3-6.52 1.25-1.24 3.29-2.48 4.52-2.75 1.24-0.28 3.38-0.06 4.75 0.49 1.38 0.55 3.52 2.08 4.75 3.39l2.25 2.39 8.57-4.28c-19.88-30.22-27.35-41.7-29.43-45-2.07-3.3-5.91-9.37-8.52-13.5-2.62-4.12-6.7-12.45-9.09-18.5-2.38-6.05-5.72-13.83-7.43-17.29-1.7-3.46-3.64-6.27-4.3-6.25-0.66 0.02-1.43 0.38-1.7 0.79-0.28 0.41 1.97 8.4 4.99 17.75zm-27.01-1c-1.47 6.05-3.37 13.48-4.22 16.5-0.86 3.03-2.92 8.65-4.59 12.5-1.66 3.85-5.22 11.61-7.9 17.25-2.68 5.64-4.87 10.48-4.87 10.75 0 0.28-1.96 4.89-4.35 10.25-2.39 5.36-5.77 13.01-7.5 17-1.73 3.99-3.15 7.48-3.15 7.75 0 0.28 1.69 1 3.75 1.6 3.53 1.04 3.97 0.91 7.25-2.07 1.93-1.75 4.63-3.44 6-3.75 1.38-0.31 3.63 0.07 5 0.85 1.38 0.78 3.63 3.54 5 6.14 2.3 4.35 2.8 4.73 6.25 4.73h3.75c0.88-20.54 1.53-40.22 2-57 0.69-24.73 1.24-32.29 2.91-40 1.14-5.22 2.07-11.41 2.08-13.75 0.01-3.14-0.38-4.25-1.51-4.25-0.83 0-1.9 1.01-2.38 2.25-0.47 1.24-2.06 7.2-3.52 13.25zm13.16 8.34c0.08 12.46-0.27 24.91-0.77 27.66-0.5 2.75-1.39 8.6-1.98 13-0.58 4.4-1.72 12.73-2.53 18.5-0.8 5.78-1.91 15.23-2.47 21-0.55 5.78-1 10.84-0.99 11.25 0 0.41 1.92 0.77 4.25 0.78 4.01 0.03 4.37-0.2 6.25-4.12 1.18-2.45 3.23-4.76 5-5.63 1.78-0.87 4.02-1.2 5.5-0.8 1.38 0.36 3.75 1.87 5.27 3.34 1.53 1.48 2.77 3.24 2.75 3.93-0.01 0.75 1.28 1.25 3.23 1.24 1.79-0.01 3.93-0.43 4.75-0.93 1.33-0.81 1.31-1.53-0.19-6.24-0.93-2.92-3.11-10.27-4.85-16.32-1.73-6.05-3.73-13.02-4.44-15.5-0.71-2.47-2.53-8.55-4.04-13.5-1.51-4.95-3.57-12.15-4.58-16-1.01-3.85-2.29-10.15-2.84-14-0.55-3.85-1.46-12.17-2.04-18.5-0.57-6.32-1.39-11.77-1.82-12.11-0.42-0.34-1.41-0.41-2.18-0.17-1.17 0.37-1.39 4.38-1.28 23.12zm-338.24-208.33c4.95 0.23 13.5 1.29 19 2.36 5.5 1.08 13.38 3.18 17.5 4.67 4.13 1.49 10.65 4.3 14.5 6.23 3.85 1.93 10.38 5.82 14.5 8.62 4.12 2.81 11.8 9.39 17.05 14.61 5.25 5.23 11.63 12.65 14.17 16.5 2.54 3.85 6.42 10.6 8.62 15 2.21 4.4 5.17 11.38 6.57 15.5 1.41 4.13 3.47 12.11 4.58 17.75 1.31 6.66 2.01 14.28 2.01 21.75 0 7.41-0.72 15.33-2.04 22.25-1.13 5.91-3.21 14.35-4.64 18.75-1.43 4.4-4.11 11.04-5.96 14.75-1.85 3.71-4.87 9.11-6.71 12-1.84 2.89-5.52 7.95-8.16 11.25-2.65 3.3-7.11 8.18-9.9 10.83-2.8 2.66-8.24 7.22-12.09 10.15-3.85 2.92-10.82 7.36-15.5 9.87-4.67 2.51-13.22 6.12-19 8.03-5.77 1.9-14.55 4-19.5 4.66-5.57 0.75-14.7 1.01-24 0.67-11.75-0.42-16.95-1.08-24-3.05-4.95-1.38-12.37-3.95-16.5-5.7-4.12-1.76-9.52-4.35-12-5.75-2.47-1.41-7.87-4.92-12-7.8-4.12-2.87-10-7.63-13.05-10.57-3.06-2.94-8.04-8.49-11.06-12.34-3.03-3.85-7.11-9.7-9.08-13-1.97-3.3-4.59-8.02-5.82-10.5-1.23-2.47-3.28-7.42-4.55-11-1.27-3.57-3.33-10.32-4.57-15-1.98-7.42-2.27-10.97-2.29-28-0.02-16.95 0.27-20.68 2.22-28.5 1.24-4.95 3.44-12.15 4.89-16 1.45-3.85 4.36-10.26 6.47-14.25 2.11-3.99 5.5-9.61 7.54-12.5 2.03-2.89 6.19-8.13 9.25-11.65 3.05-3.52 8.93-9.09 13.05-12.39 4.13-3.29 9.98-7.57 13-9.51 3.03-1.94 9.1-5.19 13.5-7.22 4.4-2.03 10.93-4.61 14.5-5.73 3.58-1.13 9.2-2.56 12.5-3.19 3.3-0.63 8.7-1.55 12-2.05 3.3-0.49 10.05-0.72 15-0.5zm73.53 251.35c1.13 0.35 2.66 1.99 3.4 3.64 0.74 1.65 1.68 4.13 2.08 5.5 0.41 1.38 3.81 8.58 7.56 16 3.76 7.43 10.27 18.68 14.48 25 4.21 6.33 11.32 16.17 15.8 21.87 4.48 5.71 15.13 17.19 23.65 25.52 8.53 8.33 21.19 19.41 28.13 24.63 6.95 5.21 17.52 12.4 23.5 15.96 5.98 3.57 15.6 8.8 21.37 11.64 5.78 2.83 13.43 6.3 17 7.7 3.58 1.41 11.23 4.13 17 6.05 5.78 1.93 15.23 4.63 21 6 5.78 1.37 14.1 3.21 18.5 4.08 4.4 0.87 14.98 2.25 23.5 3.07 8.53 0.81 21.06 1.81 27.86 2.23 9.42 0.57 12.53 1.11 13.11 2.25 0.42 0.83 1.08 5.1 1.46 9.5 0.39 4.4 1.33 11.6 2.1 16 0.76 4.4 2.94 12.73 4.82 18.5 1.89 5.78 4.86 13.65 6.61 17.5 1.74 3.85 5.15 10.38 7.58 14.5 2.43 4.13 4.43 8.51 4.44 9.75 0.02 1.79-0.65 2.34-3.23 2.7-1.78 0.24-10.22 0.68-18.75 0.97-8.52 0.29-24.05 0.1-34.5-0.43-10.45-0.52-25.3-1.84-33-2.92-7.7-1.09-18.27-2.87-23.5-3.95-5.22-1.09-14.45-3.33-20.5-4.97-6.05-1.65-15.05-4.35-20-6-4.95-1.66-11.92-4.12-15.5-5.47-3.57-1.35-12.8-5.24-20.5-8.65-7.7-3.41-19.85-9.37-27-13.25-7.15-3.89-18.17-10.42-24.5-14.53-6.32-4.11-14.65-9.77-18.5-12.57-3.85-2.81-10.37-7.8-14.5-11.1-4.12-3.3-12.67-10.56-19-16.14-6.32-5.58-15.1-13.94-19.5-18.58-4.4-4.65-11.41-12.48-15.58-17.4-4.17-4.93-10.72-13.23-14.55-18.46-3.83-5.22-9.48-13.32-12.55-18-3.08-4.67-9-14.57-13.17-22-4.17-7.42-11.02-21.37-15.24-31-4.21-9.62-7.94-18.93-8.28-20.69-0.56-2.82-0.34-3.24 1.87-3.69 1.38-0.27 7.9-0.71 14.5-0.97 6.6-0.26 15.15-1.21 19-2.11 3.85-0.91 11.05-2.82 16-4.26 4.95-1.45 11.48-3.72 14.5-5.05 3.03-1.34 8.54-3.91 12.24-5.73 4.37-2.13 7.46-3.06 8.79-2.64zm429.47 58.24c4.95-0.06 12.83 0.39 17.5 1 4.68 0.61 12.1 2.16 16.5 3.44 4.4 1.28 10.7 3.4 14 4.7 3.3 1.31 8.7 3.9 12 5.76 3.3 1.86 7.35 4.31 9 5.44 1.64 1.13 6.14 4.59 10 7.69 3.85 3.09 9.27 8.04 12.05 11 2.78 2.95 6.9 7.85 9.15 10.87 2.26 3.03 5.55 7.98 7.32 11 1.76 3.03 5.02 9.78 7.24 15 2.21 5.23 5.15 14 6.53 19.5 2.18 8.7 2.51 12.22 2.52 27 0.01 15.13-0.29 18.21-2.69 28-1.49 6.05-4.53 15.28-6.76 20.5-2.23 5.23-6.99 14-10.57 19.5-4.14 6.35-10.03 13.49-16.15 19.56-5.3 5.26-13.24 11.98-17.64 14.94-4.4 2.96-12.05 7.28-17 9.59-4.95 2.31-13.27 5.36-18.5 6.77-5.22 1.41-13.32 3.03-18 3.61-4.67 0.57-11.87 1.03-16 1.01-4.12-0.01-11.77-0.63-17-1.37-5.22-0.74-13.1-2.35-17.5-3.57-4.4-1.22-12.27-4.23-17.5-6.69-5.22-2.46-13.32-7.03-18-10.15-4.67-3.12-12.55-9.76-17.5-14.75-4.95-5-11.49-12.88-14.54-17.52-3.05-4.63-6.96-11.13-8.68-14.43-1.72-3.3-4.25-9.15-5.61-13-1.36-3.85-3.48-11.27-4.72-16.5-1.82-7.76-2.23-12.43-2.23-25.5 0-13.07 0.41-17.74 2.23-25.5 1.24-5.22 3.34-12.65 4.69-16.5 1.35-3.85 4.97-11.5 8.04-17 3.08-5.5 8.1-13.15 11.16-17 3.07-3.85 8.29-9.61 11.62-12.8 3.32-3.19 10.32-8.65 15.54-12.13 5.23-3.48 13.55-8.13 18.5-10.33 4.95-2.2 12.38-4.99 16.5-6.2 4.13-1.22 11.55-2.8 16.5-3.52 4.95-0.72 13.05-1.36 18-1.42z"/>
</svg>